<svg width="335" height="173" viewBox="0 0 335 173" fill="none" xmlns="http://www.w3.org/2000/svg">
<path d="M329.929 148.872C305.746 173.169 278.465 174.543 237.726 172.186C199.293 169.962 155.784 149.176 102.315 155.718C48.846 162.26 0 158.114 0 134.497C0 110.879 81.6723 90 185.573 90C289.474 90 354.112 124.575 329.929 148.872Z" fill="#FFF1EB"/>
<path opacity="0.1" d="M118 141C96.8 145.4 75.1667 134.5 67 128.5C49.5 96.5 125 97.5 172 96C219 94.5 218.5 97.5 254 103.5C289.5 109.5 276 119.5 264 124C252 128.5 197 124 172 132.5C147 141 144.5 135.5 118 141Z" fill="#101010" fill-opacity="0.4"/>
<path fill-rule="evenodd" clip-rule="evenodd" d="M99.0753 85.0811L99.7835 93.9514L113.239 97.1448L123.508 101.757L131.653 108.854L135.548 105.66L140.505 94.6611L146.171 93.5966L166.709 95.7255L173.791 97.8544L171.312 109.918L168.833 118.788L209.909 116.305L208.493 95.7255L199.994 76.9203L166.355 60.5989L141.213 63.7922L123.508 83.307L115.718 87.5648L101.908 86.8551" fill="#3639B4"/>
<path fill-rule="evenodd" clip-rule="evenodd" d="M268.444 3.54886C271.212 6.90878 267.134 11.6602 264.822 14.0046C263.7 15.1429 262.77 16.4583 261.673 17.6249C260.59 18.7776 259.23 19.6849 258.256 20.7977C257.235 21.9663 256.056 23.2454 255.201 24.5601C254.66 25.3931 253.858 26.3234 253.59 27.2901C253.204 28.6802 253.527 27.8772 254.037 28.6632C254.558 29.4658 254.733 29.5121 254.91 30.6309C255.082 31.7186 255.326 32.5144 255.914 33.4436C256.883 34.9741 257.93 36.413 258.613 38.1052C259.522 40.3559 260.165 42.6408 260.889 44.9563C261.171 45.8593 261.36 46.8935 261.816 47.7255C262.463 48.9072 262.554 48.8082 263.517 48.071C266.391 45.871 269.297 43.5453 272.293 41.4485C274.009 40.2473 275.792 39.0712 277.603 38.0189C278.846 37.2966 281.517 36.0112 282.14 34.6706C282.965 32.8929 281.68 31.2616 283.448 29.6246C284.599 28.5585 286.476 27.9674 287.976 27.7085C290.095 27.3428 292.437 27.8652 294.555 28.0544C296.696 28.2454 298.789 28.0375 300.888 27.5999C304.102 26.9303 310.276 23.2252 312.359 27.6763C313.271 29.6239 312.655 31.7819 312.483 33.7782C312.334 35.5181 311.823 37.3652 310.738 38.7964C309.497 40.4316 307.692 40.5172 305.814 40.9515C303.596 41.464 301.32 41.6508 299.099 42.151C298.005 42.3971 296.926 42.5171 295.803 42.5687C294.803 42.615 293.362 42.2104 292.484 42.3381C291.653 42.459 291.937 42.9836 291.353 43.3472C291.115 43.4947 290.633 43.389 290.485 43.5078C290.078 43.8339 289.961 44.118 289.665 44.7087C288.724 46.5851 287.301 48.4142 286.092 50.1332C285.073 51.5813 283.893 53.3545 282.694 54.6466C280.154 57.3864 277.686 60.4054 275.179 63.2683C273.903 64.7249 272.373 66.2745 270.891 67.5267C270.433 67.9133 269.508 68.261 269.274 68.8022C268.941 69.5736 269.848 71.2714 270.06 72.0468C270.564 73.8903 270.632 75.7944 271.166 77.61C271.677 79.3463 271.863 81.2398 271.976 83.0497C272.233 87.1408 272.793 91.021 272.661 95.1145C272.548 98.6446 272.418 102.03 271.191 105.496C270.074 108.651 266.727 112.085 263.614 113.248C261.761 113.94 260.04 114.569 258.175 114.944C256.334 115.315 254.394 115.694 252.565 116.216C249.173 117.184 245.598 117.86 242.074 118.191C237.565 118.615 232.861 118.656 228.364 118.5C226.313 118.429 224.205 118.425 222.181 118.431C220.083 118.437 218.107 118.85 216.011 119.069C208.611 119.844 200.792 119.221 193.396 119.979C189.741 120.354 186.092 121.075 182.374 121.118C179.044 121.157 175.669 120.937 172.413 120.923C171.381 120.918 170.481 121.001 169.449 120.764C168.905 120.639 168.14 120.153 167.591 120.433C167.111 120.678 166.749 121.709 166.452 122.148C165.802 123.108 165.009 123.879 164.173 124.675C160.853 127.836 157.563 128.9 153.206 130.058C151.205 130.59 150.218 130.868 148.538 132.085C147.17 133.076 145.786 133.788 144.211 134.372C141.122 135.518 137.48 134.632 134.577 133.638C133.172 133.156 131.694 132.718 130.258 132.147C128.302 131.369 126.688 130.076 124.76 129.281C124.981 131.335 122.75 132.025 122.073 133.406C121.636 134.298 121.901 135.698 121.435 136.707C121.002 137.642 120.334 138.526 119.291 138.771C117.87 139.104 115.33 137.526 114.332 136.605C113.778 136.093 113.284 134.731 112.605 134.505C111.72 134.209 110.098 135.516 109.26 135.811C105.252 137.224 101.191 137.891 96.8871 137.328C92.5265 136.757 88.5293 135.211 84.4401 133.745C76.4315 130.873 69.4607 126.145 63.1896 120.452C62.8407 120.135 62.3345 119.853 62.0939 119.438C61.8837 119.075 61.9021 118.219 61.7648 118.017C61.3562 117.415 60.7441 117.521 59.9778 117.463C57.6102 117.285 55.7294 116.714 53.8943 115.129C51.0058 112.635 49.9374 106.82 54.3652 105.275C55.497 104.88 56.7427 104.801 57.9127 105.045C58.3953 105.145 60.1904 106.232 60.649 106.159C61.3442 106.048 61.209 105.155 61.3937 104.677C61.8621 103.467 62.5213 102.402 63.3159 101.375C64.6366 99.6679 66.2461 97.952 67.8976 96.563C69.6917 95.0533 71.6673 94.3834 73.8032 93.5476C75.2421 92.9844 78.0509 92.0177 79.575 92.5214C81.5598 93.1776 80.5883 95.3441 79.3376 96.1017C77.5513 97.1844 75.4077 97.628 73.5976 98.7234C71.6001 99.9324 69.7755 101.588 67.9475 103.041C66.4764 104.211 65.2016 105.654 63.7072 106.775C63.3109 107.072 62.6638 107.592 62.5407 107.756C62.4979 107.813 62.5506 108.275 62.3546 108.481C61.4853 109.392 61.6888 109.29 60.3797 108.97C58.8365 108.593 55.1524 107.74 54.1118 109.651C53.1753 111.371 57.0084 112.92 58.2668 113.445C60.1144 114.215 60.546 114.988 61.866 116.455C63.2182 117.958 65.4645 118.98 67.1585 120.101C70.82 122.523 74.9357 124.242 78.8568 126.167C82.6725 128.039 86.7745 129.387 90.7505 130.697C93.151 131.488 96.0277 132.337 98.5471 132.58C101.086 132.826 103.466 132.413 105.957 131.929C106.953 131.735 107.705 131.587 108.746 131.22C109.21 131.057 109.967 131.033 110.335 130.747C110.906 130.304 110.669 129.95 110.77 129.193C111.212 125.874 113.518 129.579 114.538 130.684C115.325 131.537 116.1 132.585 117.137 133.126C118.436 133.803 118.661 133.484 119.086 132.368C119.883 130.277 120.183 127.902 123.194 128.209C120.817 126.178 118.551 124.452 116.517 122.011C114.509 119.603 112.632 117.015 110.707 114.54C109.129 112.512 107.755 109.712 105.707 108.112C105.059 107.606 103.091 106.441 102.342 106.465C101.221 106.502 100.225 108.331 99.0173 108.483C97.6831 108.652 97.0689 108.187 96.6879 107.105C96.2927 105.982 97.2373 104.691 96.9182 103.875C96.8294 103.647 96.2616 103.375 96.0861 103.046C95.8222 102.551 95.803 101.899 95.8819 101.351C95.9998 100.532 96.2895 100.198 96.2276 99.375C96.1558 98.4182 95.7358 97.7185 96.0666 96.7179C96.4137 95.6667 97.4818 95.0908 98.1484 94.3144C99.1574 93.1394 98.6419 92.2533 98.2372 90.7437C97.3704 87.5136 96.3596 84.3202 95.48 81.0919C93.4574 81.7311 91.4796 82.4558 89.4464 83.0515C87.4906 83.6249 85.0702 84.1391 83.2556 85.0432C82.1652 85.5865 82.468 85.0875 82.5487 86.294C82.6004 87.075 82.9308 87.9479 83.0844 88.718C83.3678 90.1406 83.4912 93.8114 84.6068 94.4909C85.2822 94.9026 86.369 94.3045 87.1116 95.1357C87.7372 95.8347 87.5496 96.8516 87.9261 97.6287C88.1599 98.1119 88.6125 98.2958 88.8941 98.7397C89.4821 99.6679 89.4195 100.448 89.5231 101.488C89.5882 102.143 89.4874 104.105 89.8136 104.614C90.2488 105.293 91.111 105.175 91.838 105.386C93.67 105.919 95.3573 106.846 96.9129 107.926C97.7203 108.912 103.499 114.686 100.989 115.421C99.7773 115.776 97.6332 113.049 96.7611 112.308C95.4093 111.159 93.9934 110.405 92.345 109.771C88.322 108.225 84.6821 106.836 80.301 107.478C78.4227 107.753 76.1411 108.584 74.2543 108.401C72.3554 108.217 72.8472 106.525 74.0346 105.581C75.0963 104.737 76.5741 104.974 77.0401 103.559C77.5103 102.129 77.0054 100.323 77.7601 98.89C78.4043 97.6665 79.9232 96.3967 81.0957 95.6879C81.6069 95.3791 82.4833 95.1633 82.7504 94.7081C82.9694 94.3346 82.0668 92.1935 81.9416 91.7486C81.3288 89.5683 80.6608 87.3859 80.1418 85.1819C79.6607 83.1392 79.5354 82.0805 81.6897 81.3392C84.9775 80.2073 88.4246 79.6781 91.7138 78.6375C91.1308 77.1204 89.3084 78.397 87.9993 78.3443C86.3959 78.2799 84.5406 77.7529 83.0136 77.2608C79.5471 76.1435 77.1883 73.3576 76.6527 69.7653C76.5349 68.9772 76.906 67.3969 76.6187 66.7C76.3477 66.0418 75.5814 65.7217 75.0213 65.2527C73.5778 64.0444 72.2992 62.3855 71.5205 60.6685C70.74 58.9477 70.6855 57.0147 71.1391 55.1987C71.3889 54.1981 71.53 54.0605 71.1769 53.1143C70.7679 52.0199 70.101 51.0454 69.7239 49.9206C69.1062 48.0785 68.7693 46.0924 68.803 44.147C68.8412 41.9646 69.7175 40.9855 70.2981 39.0613C70.7563 37.5424 70.1311 35.4431 70.2358 33.7577C70.3699 31.6011 70.9226 29.8686 71.8767 27.949C73.3429 24.9998 75.6645 21.8383 78.6863 20.2919C79.2839 19.9859 80.266 19.9679 80.7999 19.6124C81.4633 19.1706 81.5153 18.5194 81.775 17.7455C82.3945 15.8998 83.1679 14.4047 84.5073 12.9937C88.8516 8.41772 96.4643 6.79701 102.569 7.18326C103.666 7.25294 104.711 7.77113 105.75 7.46658C106.47 7.25542 107.233 6.50625 107.975 6.19605C108.914 5.80342 109.856 5.57387 110.866 5.47341C112.862 5.27463 114.486 5.48473 116.326 6.15785C117.02 6.41217 117.685 6.68983 118.37 6.96573C119.451 7.40185 119.389 7.19422 120.406 6.9919C122.432 6.58902 123.596 6.8872 125.39 7.75061C125.869 7.98053 126.626 8.15137 127.037 8.4736C127.619 8.93025 127.856 10.3179 128.505 10.5768C128.864 10.7207 129.976 10.1912 130.439 10.1159C131.257 9.98254 132.058 10.1 132.872 10.0911C134.313 10.0756 135.836 10.129 137.152 10.8095C138.143 11.3217 139.335 12.31 140.189 12.9682C141.369 13.8787 142.107 15.6002 143.581 16.077C144.159 16.2638 144.784 16.0749 145.373 16.2341C146.141 16.4413 146.879 16.9974 147.502 17.4883C148.572 18.3326 149.478 20.2954 150.569 20.6385C151.296 20.8677 152.428 20.6286 153.261 20.8659C154.306 21.1638 155.172 21.5953 155.947 22.3851C157.425 23.8919 157.842 26.1193 157.906 28.1623C157.923 28.7131 157.583 30.2659 157.913 30.7547C158.206 31.1883 159.312 31.4384 159.762 31.8834C161.168 33.2745 161.804 35.5928 161.946 37.4986C162.109 39.6732 161.547 41.2058 161.159 43.2867C160.919 44.5838 160.607 43.7529 161.703 44.5169C162.455 45.0415 162.975 45.4083 163.463 46.2317C164.483 47.9533 164.74 49.9829 164.571 51.9449C164.361 54.393 163.118 56.2174 162.559 58.5335C165.134 58.5335 167.909 59.2134 170.425 59.6877C171.353 59.8628 172.073 60.3725 172.897 60.7814C173.608 61.134 174.138 61.175 174.809 61.4089C176.433 61.9744 176.119 61.88 177.249 60.7226C181.749 56.1124 188.154 53.329 194.613 53.4195C198.216 53.4698 201.701 53.9448 205.069 55.2401C206.465 55.7767 208.017 56.3554 209.256 57.1972C210.69 58.1727 210.904 58.1614 212.801 58.201C219.669 58.3432 226.333 62.0275 231.332 66.4931C231.778 63.4979 236.649 61.7017 239.008 60.4602C239.814 60.0361 240.554 59.815 240.951 59.0202C241.322 58.2764 241.3 56.7462 241.548 55.8701C242.003 54.261 242.529 52.2923 242.488 50.5955C242.371 45.6828 241.232 40.7927 241.085 35.8687C241.048 34.6321 240.907 33.2441 241.072 32.0196C241.204 31.0331 241.655 30.418 241.007 29.5047C239.777 27.7711 237.508 27.3382 236.745 25.056C235.515 21.3785 237.627 17.6178 240.511 15.4304C242.171 14.1712 243.793 13.9045 245.124 12.1391C246.322 10.5485 247.335 8.66744 248.701 7.22146C249.847 6.00929 250.89 4.38504 252.203 3.37625C253.549 2.34199 255.525 1.6427 257.132 1.15139C260.991 -0.0285922 265.729 0.252966 268.444 3.54886ZM147.837 95.9337C146.939 95.9719 146.036 96.0727 145.137 96.0716C144.59 96.0709 143.318 95.7759 142.826 95.9839C141.841 96.4002 141.044 98.6782 140.583 99.5872C139.092 102.534 137.918 105.624 136.463 108.583C135.706 110.122 134.576 111.134 132.791 111.159C130.79 111.186 129.848 109.906 128.579 108.592C126.047 105.971 122.639 103.719 119.496 101.896C116.101 99.9278 112.053 98.0203 108.188 97.3252C105.615 96.8626 99.7178 94.8665 98.1519 98.091C98.9522 97.9842 102.007 97.5176 102.136 98.8695C102.233 99.884 98.476 100.057 98.0118 101.648C98.9943 101.572 102.385 100.626 102.624 102.084C102.751 102.86 101.334 103.25 100.835 103.512C99.8473 104.031 99.2526 104.569 98.4749 105.349C99.6747 105.349 100.857 104.332 101.997 104.438C102.466 104.482 103.031 105.183 103.459 105.397C104.065 105.7 104.72 105.851 105.388 105.934C106.844 106.114 107.726 105.704 108.886 106.651C109.929 107.502 111.012 108.624 111.973 109.571C114.022 111.592 115.709 114.156 117.467 116.427C119.637 119.231 121.891 121.456 124.779 123.556C127.129 125.265 129.511 126.372 132.174 127.63C134.787 128.864 138.072 130.296 141.036 130.364C143.4 130.418 146.355 129.661 148.507 128.653C149.758 128.067 150.213 128.067 151.465 127.835C153.408 127.475 155.658 126.433 157.457 125.616C163.106 123.049 166.686 117.454 169.234 111.977C170.684 108.86 171.589 105.815 172.194 102.442C172.523 100.605 172.81 100.174 171.018 99.4142C169.208 98.647 167.251 98.1727 165.368 97.6308C159.842 96.0416 153.543 95.6911 147.837 95.9337ZM161.336 62.69C160.772 62.9436 160.473 65.6509 160.219 66.254C159.09 68.9454 157.088 70.6248 154.15 70.905C153.239 70.992 151.752 70.1629 151.098 70.5548C150.223 71.0797 150.065 73.5886 149.124 74.4117C148.257 75.1697 146.451 75.9709 145.339 76.2623C144.481 76.4873 143.63 76.4254 142.775 76.2273C142.287 76.1145 141.356 75.5124 140.879 75.7395C140.065 76.1265 139.682 78.1869 138.754 78.8858C137.396 79.9077 135.241 80.6646 133.579 80.6455C131.865 80.6257 129.799 79.2735 128.273 79.5971C126.462 79.9813 126.7 81.6642 125.909 82.9797C124.23 85.7733 122.321 88.1796 119.302 89.5135C116.036 90.9559 111.355 91.1395 107.929 90.4055C106.067 90.0065 104.198 89.4424 102.627 88.3763C101.375 87.5267 100.435 86.3955 99.2753 85.4357L99.0857 85.2822L99.0952 85.3161C99.1209 85.4055 99.1471 85.4928 99.1737 85.5777C99.726 87.3364 99.9711 90.4568 101.068 91.8911C102.05 93.1747 105.459 93.2465 107.1 93.4192C111.498 93.8822 115.28 94.9104 119.16 97.114C122.874 99.2232 126.265 101.776 129.48 104.526C130.141 105.091 130.669 105.997 131.468 106.361C132.772 106.954 132.667 106.261 133.012 105.101C133.72 102.721 134.471 100.37 135.549 98.126C136.011 97.1643 137.062 95.973 137.288 94.9518C137.503 93.972 137.06 92.9031 137.211 91.8511C137.591 89.1937 138.792 86.9278 140.298 84.7787C141.343 83.2871 144.47 80.7474 144.07 84.5017C143.775 87.2741 141.749 89.7303 141.25 92.4542C142.787 92.1681 143.751 92.2515 145.135 92.3389C147.022 92.4581 149.169 91.7203 151.114 91.7139C154.845 91.7022 158.519 91.9452 162.186 92.6092C163.884 92.9169 165.501 93.2646 167.139 93.845C168.425 94.301 170.136 95.7533 171.506 95.864C172.5 95.9443 172.153 96.0745 172.424 95.2277C172.675 94.4421 172.405 93.0287 172.355 92.2045C172.241 90.3394 171.793 88.5241 171.561 86.6714C171.462 85.8762 170.512 82.5619 171.514 81.9196C173.048 80.9366 173.689 84.7935 173.885 85.4843C174.885 89.0257 175.529 92.5147 175.499 96.2174C175.473 99.4195 175.26 102.498 174.66 105.681C174.306 107.561 173.655 109.367 172.926 111.131C172.541 112.059 170.287 115.58 170.601 116.2C170.852 116.697 174.682 115.832 175.271 115.782C177.368 115.603 179.47 115.727 181.569 115.603C184.671 115.419 187.797 115.457 190.768 114.91C192.539 114.584 194.419 114.896 196.189 114.907C198.141 114.92 200.027 114.74 201.992 114.926C203.484 115.067 205.722 115.853 207.162 115.527C208.635 115.192 208.2 114.207 208.21 112.709C208.234 109.088 207.912 104.922 207.102 101.402C206.675 99.5462 206.101 97.7497 205.795 95.863C205.488 93.9755 205.504 91.9357 204.934 90.1081C203.923 86.8652 201.144 84.0504 198.841 81.654C196.472 79.1879 193.836 77.3974 190.929 75.6288C188.459 74.1259 185.848 72.7146 183.171 71.5388C179.959 70.1275 176.311 69.2574 173.334 67.3993C170.856 65.8533 167.272 64.3288 164.414 63.6128C163.962 63.4997 161.656 62.5464 161.336 62.69ZM249.584 32.7199C247.523 33.0093 243.669 32.0036 243.671 34.8422C243.672 36.3992 244.189 38.032 244.336 39.5897C244.509 41.428 244.389 43.2779 244.67 45.1091C245.124 48.0732 245.789 50.8106 245.566 53.856C245.323 57.1664 244.633 60.3474 244.697 63.7052C244.758 66.9006 244.586 69.9818 246.106 72.9141C246.747 74.1521 247.268 75.6065 247.974 76.7649C248.801 78.1225 249.517 78.5201 250.996 79.0669C251.922 79.4093 254.202 79.855 254.801 80.7778C255.667 82.1099 254.511 82.6486 253.372 82.6033C249.854 82.4636 246.243 80.896 242.945 79.751C241.393 79.2119 239.9 78.5332 238.375 77.9449C237.157 77.4748 236.163 77.3125 235.055 76.5106C232.355 74.5564 230.27 71.8554 227.607 69.8509C222.569 66.0588 216.528 63.7947 210.2 63.123C208.572 62.95 207.311 63.0278 205.681 63.1657C204.778 63.2421 203.885 63.2666 202.992 63.4321C202.476 63.5279 200.536 64.4487 200.133 64.2573C197.515 63.0144 204.927 59.2307 205.761 59.0238C204.708 58.2827 202.521 58.4104 201.257 58.2456C199.644 58.0348 198.076 57.8293 196.447 57.9181C194.17 58.0426 191.748 57.9754 189.513 58.4663C186.713 59.0811 184.062 60.0251 181.531 61.3498C180.686 61.7919 179.498 62.3296 179.506 63.5619C179.513 64.72 179.975 64.5304 181.104 64.7868C184.146 65.4783 186.961 67.4917 189.67 69.0257C192.552 70.6563 195.421 72.4886 198.095 74.4425C203.22 78.1886 206.146 83.5782 208.422 89.4367C209.599 92.4666 210.453 96.0051 210.807 99.2345C211.202 102.828 210.873 106.441 211.154 110.03C211.22 110.878 211.334 114.263 211.975 114.79C212.461 115.191 214.873 114.475 215.553 114.429C218.396 114.233 221.256 114.252 224.045 114.092C229.939 113.753 235.981 114.226 241.929 113.877C244.921 113.701 247.817 113.281 250.751 112.678C253.478 112.117 256.876 112.051 259.364 110.756C264.153 108.264 267.072 102.257 267.282 97.1699C267.51 91.6559 267.133 85.6555 265.973 80.1624C265.365 77.2821 264.838 74.5408 264.123 71.6945C263.322 68.5079 262.423 65.3351 261.544 62.1877C260.03 56.7703 257.674 51.7231 256.546 46.1705C255.926 43.1162 255.046 39.9229 254.129 36.9418C253.791 35.8432 253.124 33.7559 252.336 32.9212C251.509 32.0447 250.815 32.5473 249.584 32.7199ZM81.5616 98.7004C80.3201 99.4938 79.425 101.278 79.4816 102.748C79.4816 104.69 81.095 103.863 82.6152 103.933C83.5408 103.976 86.9634 104.924 87.5652 104.009C88.2838 102.915 86.1228 103.403 85.8493 102.817C85.2963 101.631 87.832 101.13 87.522 100.102C87.2121 99.0747 84.6358 101.446 84.0835 100.253C83.5722 99.1482 86.1748 98.1929 85.7754 97.432C85.4364 96.7872 82.0003 98.4196 81.5616 98.7004ZM86.9526 88.5864C86.9462 89.4138 86.6607 90.5142 85.6308 90.3454C84.3448 90.1346 83.9549 87.6685 83.8374 86.7354C84.6611 83.6631 86.9664 86.7018 86.9526 88.5864ZM124.295 62.1807C122.808 62.4134 122.641 63.0784 121.946 64.0988C121.628 63.8463 121.431 63.5113 121.356 63.0939C117.84 64.6757 114.182 65.9116 110.369 66.4963C106.12 67.1482 101.688 66.1617 97.3711 65.7599C96.8124 65.7079 95.0976 65.0181 94.6422 65.2919C94.2654 65.5186 94.2718 67.4216 94.241 67.7895C94.0312 70.2966 94.5099 72.5115 94.8786 74.9653C94.9769 75.6186 94.8803 77.0334 95.3958 77.5909C95.7585 77.9828 96.4038 77.8402 96.863 78.432C98.1009 80.0287 98.487 83.1213 99.0569 85.1804L99.071 85.2305L99.0738 85.1937C99.2502 83.0943 100.893 84.1728 102.116 84.7231C103.954 85.5508 105.88 85.9933 107.868 86.2717C109.467 86.4956 111.281 87.0308 112.921 86.9452C114.644 86.8557 116.763 86.1744 118.44 85.6842C120.029 85.2201 120.905 84.2155 122.002 82.922C123.05 81.6865 124.19 80.8404 125.32 79.7379C128.168 76.9605 127.389 71.206 124.915 68.4877C126.916 67.4616 130.388 65.206 127.343 62.9181C126.557 62.3264 125.244 62.0321 124.295 62.1807ZM99.071 85.2305L99.0683 85.2682L99.0857 85.2822L99.071 85.2305ZM108.824 80.4625C109.613 80.5223 110.18 81.1152 109.973 81.9322C109.71 82.9644 107.914 83.6109 107.015 83.6682C104.635 83.9526 106.887 80.3165 108.824 80.4625ZM101.306 76.4912C101.391 77.0904 101.306 77.4639 101.826 77.6585C102.224 77.8074 102.975 77.5011 103.464 77.708C103.952 77.9149 103.968 78.0401 104.268 78.5261C103.928 79.5865 102.371 80.786 101.122 80.1482C99.5684 79.3552 99.4237 76.2273 99.8496 74.8924C100.571 72.6301 101.178 75.5974 101.306 76.4912ZM239.441 64.5452C238.793 64.7804 238.221 65.4472 237.642 65.8101C236.1 66.7754 234.413 67.2879 232.937 68.3448C233.991 69.4813 234.544 71.0224 235.573 72.1161C236.218 72.8005 237.002 72.8766 237.777 73.248C240.042 74.3335 242.708 75.8605 245.21 76.3794C243.745 74.6674 242.815 73.1185 241.945 71.0383C241.634 70.2945 241.244 69.5078 241.011 68.7353C240.677 67.6289 240.857 66.4581 240.574 65.3662C240.269 64.1876 240.69 64.0925 239.441 64.5452ZM97.032 71.0265C97.6908 71.8033 98.1971 73.5538 98.253 74.5456C97.5581 77.8702 95.2315 73.2832 95.3023 71.7945C95.3681 70.4214 96.0898 69.9166 97.032 71.0265ZM103.335 69.2074C104.464 70.1691 104.833 71.7753 104.95 73.1025C105.077 74.541 104.748 75.1526 103.314 74.228C102.058 73.4183 101.429 71.2628 101.364 69.9997C101.364 68.5601 102.241 68.2753 103.335 69.2074ZM126.047 65.0898C126.329 66.591 123.001 68.1339 123.544 65.7831C123.435 64.283 125.748 63.4995 126.047 65.0898ZM283.206 37.923C280.692 40.9887 277.647 42.9351 274.501 45.2516C271.714 47.3038 269.061 49.5209 266.044 51.2244C265.158 51.7249 263.707 52.016 263.546 52.9456C263.396 53.8196 265.02 56.1668 265.395 57.1144C266.663 60.3102 267.598 63.5899 268.589 66.8875C271.542 62.2907 274.52 57.6174 278.139 53.4609C281.333 49.7929 284.61 45.9548 287.402 42.0024C285.712 40.9742 284.312 39.5561 283.206 37.923ZM301.634 30.8534C298.834 31.7274 295.609 32.2194 292.691 31.9216C291.368 31.7865 290.065 31.674 288.729 31.5916C287.729 31.53 286.038 31.043 285.178 31.8126C284.364 32.5402 284.463 33.9883 284.877 34.8928C285.145 35.4775 285.517 35.5719 285.759 36.0561C285.838 36.2121 285.606 36.4816 285.807 36.8484C286.36 37.8579 288.243 39.5448 289.258 40.0587C290.559 40.7184 290.754 39.9512 291.768 39.2866C293.904 37.8877 297.492 37.8622 299.994 37.6104C300.045 38.148 307.296 35.5634 308.012 35.0891C309.35 34.2023 310.919 30.1208 309.495 28.9111C307.776 27.451 303.297 30.3338 301.634 30.8534ZM252.87 11.3981C251.988 12.8009 250.816 14.307 249.514 15.3565C248.044 16.5418 246.135 17.002 244.454 17.813C242.932 18.5473 241.578 19.2831 240.628 20.7C239.97 21.6802 238.765 23.0554 239.315 24.3185C239.877 25.6106 242.091 26.5168 243.053 27.6399C244.378 29.186 244.38 28.8825 246.364 28.4552C247.355 28.2416 248.296 28.1751 249.309 28.2104C249.719 28.2246 251.102 28.6257 251.466 28.3565C251.931 28.0116 251.473 26.5798 251.532 26.0227C251.622 25.1752 251.924 24.3008 252.209 23.5018C253.343 20.3297 255.498 18.2378 257.594 15.8326C259.842 13.2519 262.922 11.4405 265.137 8.84783C266.361 7.41635 265.804 6.40438 264.125 5.7341C263.272 5.39383 262.273 5.39524 261.398 5.12394C260.492 4.84345 259.686 4.29095 258.716 4.27999C254.595 4.1148 254.464 8.8595 252.87 11.3981Z" fill="#151648"/>
</svg>
