<svg width="472" height="378" viewBox="0 0 472 378" fill="none" xmlns="http://www.w3.org/2000/svg">
<path d="M7.06912 295.011C40.7813 260.761 78.8119 258.824 135.603 262.148C189.18 265.283 249.833 294.583 324.37 285.361C398.907 276.14 467 281.984 467 315.276C467 348.568 353.146 378 208.305 378C63.4645 378 -26.643 329.261 7.06912 295.011Z" fill="#FFF1EB"/>
<path opacity="0.1" d="M329.988 337.756C315.622 352.1 299.416 352.911 275.216 351.519C252.386 350.206 226.54 337.935 194.778 341.797C163.016 345.659 134 343.212 134 329.269C134 315.326 182.516 303 244.236 303C305.956 303 344.353 323.412 329.988 337.756Z" fill="#101010" fill-opacity="0.4"/>
<path fill-rule="evenodd" clip-rule="evenodd" d="M167.213 163.813C168.498 176.741 169.782 189.669 171.067 202.597C178.062 198.62 185.057 194.641 192.051 190.664V220.116V227.857C192.051 228.542 191.643 230.895 192.051 231.489C192.397 231.992 194.961 232.006 195.567 232.091C199.521 232.643 203.486 233.134 207.456 233.571C217.919 234.722 229.117 236.372 239.62 235.049C248.75 233.898 257.601 230.662 265.942 226.896C268.871 225.574 271.758 224.159 274.592 222.647C275.193 222.327 277.374 221.57 277.701 220.917C277.968 220.384 277.342 218.511 277.258 217.95C276.906 215.588 276.553 213.226 276.201 210.864L271.278 177.878L280.577 187.133C281.306 187.858 282.689 189.916 283.697 190.237C284.436 190.473 286.267 189.744 286.997 189.604C292.263 188.592 297.528 187.581 302.794 186.57C304.021 186.334 306.786 186.343 307.82 185.605C308.377 185.207 308.403 184.397 308.599 183.63C309.884 178.615 311.168 173.601 312.452 168.587C312.683 167.684 313.974 164.836 313.646 163.926C313.528 163.6 312.959 163.377 312.61 163.165C304.663 158.327 296.715 153.489 288.768 148.652C284.415 146.002 280.061 143.351 275.707 140.701C273.884 139.591 271.644 137.591 269.577 136.97C268.295 136.584 266.428 136.873 265.101 136.835C262.403 136.759 259.706 136.682 257.009 136.605C256.586 136.593 255.107 136.293 254.752 136.541C254.456 136.747 254.578 137.035 254.482 137.527C254.244 138.728 254.243 140.023 254.126 141.243C254.032 142.221 254.218 144.015 253.776 144.901C253.493 145.467 253.852 145.242 253.469 145.515C253.014 145.841 251.56 145.736 251.019 145.799C248.376 146.105 245.732 146.411 243.089 146.717C239.946 147.08 236.769 147.763 233.611 147.449C228.825 146.972 223.664 146.996 218.964 145.991C217.742 145.73 217.302 145.044 216.36 144.106C214.521 142.276 212.7 140.425 210.841 138.614C209.93 137.726 210.32 137.877 209.381 138.214C208.204 138.635 207.01 139.653 205.944 140.3C201.862 142.778 197.779 145.257 193.697 147.735L168.773 162.866C168.253 163.182 167.733 163.497 167.213 163.813Z" fill="#3639B4"/>
<path fill-rule="evenodd" clip-rule="evenodd" d="M405.607 165.42C400.469 184.86 390.136 206.058 369.317 212.254C364.256 213.76 359.332 214.898 354.075 214.324C353.575 214.269 353.156 214.339 352.68 214.348C351.827 214.365 352.564 214.67 351.607 214.376C350.862 214.146 350.164 213.572 349.387 213.319C347.321 212.645 345.119 212.515 343.019 211.971C337.861 210.633 332.544 208.982 327.546 207.137C325.192 206.269 323.029 205.059 320.815 203.896C318.565 202.714 316.18 201.98 313.904 200.895C312.105 200.038 309.024 198.921 307.76 197.313C306.411 195.598 308.277 191.948 308.81 190.125C310.623 183.922 312.782 177.811 314.145 171.484C318.851 176.92 325.382 180.286 332.143 182.457C335.812 183.634 339.586 184.486 343.402 185.019C346.866 185.503 350.604 186.088 354.076 185.401C356.698 184.883 359.989 183.682 361.861 181.688C362.529 180.976 363.331 179.671 362.956 178.637C362.481 177.324 361.096 177.942 360.347 176.962C359.694 176.109 359.796 174.113 359.588 173.074C359.22 171.234 358.715 169.446 358.098 167.675C356.9 164.238 355.407 160.793 355.05 157.136C354.739 153.962 355.464 150.961 357.052 148.208C357.803 146.906 359.688 143.365 361.527 143.512C363.548 143.673 360.823 152.159 360.734 153.89C360.381 160.752 361.305 168.063 364.838 174.078C366.19 176.381 368.147 179.062 371.035 179.347C374.094 179.649 376.562 177.25 378.018 174.823C381.571 168.901 379.78 160.776 377.98 154.569C375.773 146.954 370.012 141.706 366.369 134.867C371.808 135.412 374.72 138.855 377.511 143.224C380.584 148.034 382.977 153.808 384.156 159.405C384.752 162.232 384.341 165.071 384.345 167.927C384.346 168.875 384.345 172.375 385.897 172.237C387.556 172.09 388.125 168.143 388.368 166.939C388.927 164.177 389.532 161.415 390.018 158.64C390.877 153.729 391.259 148.7 392.288 143.824C392.462 143 392.808 140.713 394.046 141.33C395.001 141.806 394.848 145.343 394.883 146.165C394.968 148.191 395.089 150.217 395.105 152.245C395.13 155.251 394.528 158.363 394.823 161.35C395.016 163.302 396.067 165.459 397.37 162.827C398.663 160.216 398.926 156.96 399.647 154.152C400.404 151.204 401.185 148.213 402.792 145.594C403.237 144.868 403.716 143.715 404.707 144.056C405.426 144.305 405.957 146.005 406.18 146.605C407.184 149.316 407.013 152.331 406.95 155.169C406.872 158.647 406.498 162.048 405.607 165.42ZM305.419 170.465C305.145 170.376 303.979 170.266 303.689 170.241C303.35 170.212 303.735 169.589 302.915 169.766C303.073 170.157 303.354 170.418 303.759 170.549C302.525 170.965 301.615 169.938 300.772 169.806C299.965 169.679 299.93 169.806 299.133 170.655C298.271 169.606 298.432 170.261 297.723 170.261C297.465 170.262 297.453 170.65 297.033 170.604C296.666 170.563 296.628 170.008 296.411 169.943C295.233 169.588 294.022 171.375 292.687 169.825C292.363 171.437 288.656 169.417 287.229 169.701C285.734 169.997 286.379 170.531 285.171 169.618C284.019 168.748 284.34 169.326 283.001 170.038C283.032 170.022 282.245 170.552 282.318 170.56C281.391 170.452 281.444 169.497 280.27 169.547C279.027 169.601 278.497 170.572 277.359 169.377C277.112 170.272 277.061 169.887 276.478 170.112C276.157 170.188 275.877 170.104 275.637 169.861C275.564 170.107 275.404 170.257 275.156 170.313C274.521 170.37 273.329 170.458 272.753 170.153C271.888 169.696 272.583 169.52 271.983 169.006C271.715 170.424 271.125 170.122 269.882 170.255C268.934 170.356 268.725 170.066 267.819 169.925C266.927 169.786 265.775 170.131 264.905 170.278C264.546 170.339 264.064 170.589 263.699 170.501C263.369 170.422 263.228 170.167 263.031 170.101C262.792 170.02 262.843 169.812 262.43 169.711C262.146 169.642 261.636 169.908 261.351 169.954C259.323 170.282 257.374 170.285 255.439 169.49C256.392 171.159 253.212 170.258 252.645 169.567C251.936 170.674 251.078 169.893 249.65 169.979C248.274 170.062 246.205 170.482 245.647 168.774C245.538 169.121 244.757 170.129 244.447 170.282C243.545 170.728 243.437 170.069 242.599 169.801C241.458 169.435 241.696 170.129 240.988 170.27C239.794 170.508 239.148 169.67 238.092 169.224C238.048 169.917 238.025 170.343 237.424 170.775C236.891 168.843 234.992 170.933 235.318 168.351C234.595 168.82 233.578 169.18 233.372 170.129C234.581 169.797 233.501 170.585 233.45 170.611C233.291 170.694 232.751 169.939 232.625 169.833C232.591 170.189 232.557 170.545 232.523 170.901C232.042 170.661 231.59 170.232 231.199 170.016C230.847 169.823 231.351 169.419 230.756 169.391C230.442 169.376 230.115 170.053 229.786 170.111C229.283 170.199 229.525 169.479 229.314 169.503C228.993 169.54 228.471 170.008 228.228 169.999C227.432 169.969 227.971 169.6 227.364 169.431C226.279 169.128 226.348 169.836 225.569 170.091C223.784 170.675 223.963 167.988 222.148 169.78C221.714 170.209 221.434 170.871 220.839 170.833C219.607 170.757 220.04 169.301 220.29 168.588C220.549 168.715 215.789 171.152 215.826 171.057C215.856 170.473 216.605 170.022 215.936 169.503C215.389 170.673 214.813 170.693 213.551 170.911C212.938 171.017 212.817 171.158 212.161 170.904C211.743 170.743 211.462 170.078 211.046 170.042C211.103 170.047 210.339 170.625 210.223 170.678C209.534 170.987 209.098 170.636 208.429 170.763C207.859 170.872 207.634 171.355 207.067 171.223C206.309 171.047 206.754 170.145 205.712 170.397C205.355 170.482 205.141 171.167 204.58 171.308C203.705 171.529 202.632 171.117 201.708 171.332C200.974 171.503 200.429 171.575 199.787 171.61C199.268 171.639 199.482 171.237 198.527 171.712L198.122 170.695C197.644 171.123 197.166 171.551 196.689 171.98C196.598 171.596 196.541 171.207 196.516 170.813C195.804 171.525 194.906 171.646 193.948 171.71C192.911 171.779 192.138 172.005 191.128 172.194C190.809 172.254 189.987 172.349 189.725 172.238C189.763 172.254 189.234 172.034 189.393 172.076C189.325 171.937 189.261 171.795 189.202 171.65C189.113 171.249 188.823 171.232 188.334 171.598C188.08 171.559 187.589 171.228 187.337 171.309C186.686 171.519 186.774 172.023 186.125 171.949C185.705 171.901 185.49 171.281 185.052 171.239C184.381 171.175 183.8 171.923 183.195 172.086C185.033 171.589 180.812 171.975 182.124 172.009C181.264 171.987 180.371 171.944 179.575 172.328C179.136 172.029 179.67 171.427 179.226 171.179C178.823 170.955 178.792 171.548 178.745 171.561C178.999 171.489 178.872 171.994 178.618 172.084C177.826 172.364 177.193 171.653 177.151 170.947C176.479 171.956 176.29 171.551 175.3 171.613C174.324 171.674 173.483 172.184 172.506 172.175C170.576 172.157 169.265 171.488 168.621 169.77C170.678 170.019 172.749 168.701 174.761 169.011C175.422 169.114 175.835 169.609 176.414 169.521C177.128 169.412 177.627 168.636 178.542 168.553C180.56 168.369 182.55 168.548 184.582 168.24C187.01 167.871 189.544 167.653 191.995 167.832C193.889 167.971 195.422 167.249 197.343 167.11C199.826 166.93 202.33 166.898 204.818 166.768C207.374 166.635 210.124 166.228 212.673 166.358C213.469 166.399 214.153 166.477 214.943 166.429C215.277 166.409 215.593 166.183 215.944 166.217C216.4 166.261 216.596 166.726 217.07 166.71C217.874 166.683 218.734 166.022 219.69 166.004C221.263 165.975 222.829 165.978 224.405 165.889C225.793 165.81 227.28 165.487 228.662 165.505C229.636 165.517 229.877 166.345 230.445 166.43C231.466 166.583 236.633 163.653 237.079 166.283C239.769 164.449 243.376 166.002 246.369 165.657C250.216 165.215 254.132 165.609 258.004 165.452C261.944 165.291 265.997 165.44 269.922 165.81C271.548 165.963 273.118 166.107 274.748 166.014C275.475 165.973 276.315 165.788 277.042 165.955C277.218 165.995 278.566 166.933 278.398 166.96C279.134 166.301 278.636 166.205 279.931 166.171C280.929 166.145 281.874 166.36 282.866 166.418C284.648 166.523 286.443 166.277 288.221 166.331C289.706 166.377 291.157 166.595 292.649 166.606C294.258 166.617 296.157 166.662 297.321 167.955C297.198 167.549 297.076 167.143 296.953 166.738C298.748 166.878 300.522 167.516 302.338 167.218C301.878 167.656 301.412 168.014 301.237 168.657C302.216 168.533 302.878 167.852 303.909 167.847C304.774 167.842 304.955 168.274 305.868 167.715C305.981 168.4 306.093 169.085 306.206 169.77C307.471 169.473 306.641 168.533 306.734 167.685C307.762 167.993 308.633 167.639 308.228 169.114C307.915 170.251 306.491 170.811 305.419 170.465ZM303.641 183.13C303.2 184.365 299.383 183.659 298.48 183.529C297.314 183.36 295.979 183.093 294.905 182.961C294.777 182.79 294.622 182.644 294.442 182.525C294.307 182.712 294.136 182.846 293.93 182.924C293.436 183.031 293.435 183.539 292.787 183.426C292.757 184.177 293.28 183.751 293.681 184.023C292.671 184.698 293.133 183.921 292.566 183.933C292.425 183.735 292.23 183.657 291.979 183.7C291.66 183.782 291.365 183.918 291.096 184.109C290.843 184.374 290.627 184.388 290.447 184.15C290.275 183.977 290.064 183.87 289.815 183.83C288.82 183.991 288.542 184.431 287.421 184.359C285.82 184.256 284.088 184.677 282.512 184.455C281.535 184.318 279.903 182.789 279.46 184.28C278.784 183.174 277.709 182.422 277.062 181.293C280.074 181.12 283.085 180.913 286.099 180.804C288.738 180.71 291.625 181.006 294.092 180.882C296.402 180.766 298.849 180.511 301.208 180.301C303.708 180.078 304.536 180.625 303.641 183.13ZM225.068 183.312C226.162 183.614 227.203 182.93 228.264 183.146C228.614 183.217 229.34 183.854 229.5 183.866C229.792 183.889 230.65 183.265 231.019 183.181C233.348 182.653 236.17 182.709 238.499 183.034C239.734 183.205 239.923 182.642 241 182.369C242.12 182.085 243.711 182.304 244.891 182.225C247.664 182.04 250.437 182.172 253.192 181.97C256.02 181.762 258.834 181.65 261.664 181.505C263.591 181.406 268.224 180.31 269.821 181.736C271.138 182.912 269.441 184.953 268.123 185.419C267.138 185.767 266.666 185.034 265.934 185.104C265.102 185.184 265.392 186.165 264.648 185.255C264.188 186.159 261.292 185.774 260.462 185.834C258.653 185.964 257.123 186.326 255.892 184.644C255.976 185.129 256.059 185.614 256.142 186.099C254.51 185.229 252.758 185.508 251.341 185.811C250.639 185.961 248.486 186.998 247.725 186.551C247.202 186.243 248.124 185.717 247.242 185.454C246.779 185.317 245.981 186.082 245.416 186.044C243.852 185.937 244.296 184.888 242.759 186.222C242.239 185.774 242.066 185.011 242.134 184.358C241.019 185.306 241.112 186.887 239.117 186.598C238.373 186.49 238.237 185.734 237.849 185.595C237.023 185.298 236.93 185.832 236.214 186.255C235.944 186.414 235.615 186.671 235.297 186.703C234.644 186.768 234.54 186.469 234.451 186.478C234.016 186.526 233.469 186.746 232.953 186.589C232.491 186.448 232.355 185.634 231.54 185.824C230.76 186.007 230.753 186.535 230.895 187.325C230.125 187.246 229.66 186.819 229.084 186.356C228.503 187.707 227.28 186.588 226.603 187.728C225.721 186.679 225.156 186.968 224.062 185.943C224.116 186.371 224.17 186.798 224.223 187.226C223.37 187.062 222.99 186.462 222.262 187.256C221.555 185.944 219.413 187.813 218.312 186.546C217.822 188.151 214.576 187.767 213.205 187.795C211.99 187.82 211.091 187.72 209.904 188.002C208.855 188.25 207.401 188.508 206.415 188.394C205.77 188.32 205.066 188.202 204.263 188.289C203.105 188.414 202.105 189.011 200.906 188.729C199.1 188.303 197.993 185.939 200.004 184.901C201.381 184.191 203.86 184.454 205.375 184.323C207.885 184.105 210.699 183.649 213.213 183.857C215.173 184.018 216.96 183.552 218.961 183.355C220.467 183.207 222.936 182.94 223.918 184.428C224.295 183.993 224.256 183.088 225.068 183.312ZM197.587 203.676C197.317 202.338 208.794 201.601 209.933 201.514C212.325 201.33 214.723 201.199 217.121 201.138C219.091 201.088 220.93 201.463 222.901 201.162C224.742 200.88 226.964 200.303 228.566 201.602C228.802 199.826 235.711 200.691 237.025 200.696C242.747 200.717 248.221 200.73 253.756 200.377C256.918 200.175 260.277 199.903 263.44 200.061C264.867 200.132 266.016 200.511 267.435 200.182C268.36 199.968 269.358 199.522 270.243 200.152C271.279 200.891 271.721 203.399 271.008 204.446C270.488 205.209 270.028 205.124 269.198 204.992C267.921 204.79 266.973 204.496 265.671 205.013C265.882 204.929 264.799 205.17 264.889 205.163C263.415 205.273 261.393 206.299 260.122 205.116C260.631 205.205 261.371 204.299 260.729 204.224C260.247 204.169 259.942 204.684 259.565 204.856C258.279 205.446 257.621 205.261 256.853 204.024C255.304 205.361 255.137 204.991 254.456 203.345C253.933 203.747 253.82 204.698 253.408 205.009C253.347 205.056 253.6 205.633 253.303 205.61C253.027 205.587 252.937 205.136 252.724 205.101C252.589 205.078 252.518 204.682 252.388 204.658C252.247 204.632 252.103 204.885 251.944 204.877C251.518 204.857 250.3 205.76 250.737 204.493C250.092 205.311 249.815 204.789 249.582 204.045C248.837 204.61 248.093 205.174 247.347 205.738C247.001 204.778 246.405 205.04 245.655 205.375C245.881 204.708 245.74 204.078 245.173 204.541C244.845 204.81 244.624 205.661 244.288 206.023C242.929 204.651 242.434 205.027 240.556 205.205C239.839 205.273 238.948 205.405 238.307 204.974C237.744 204.594 237.426 203.202 236.463 204.327C236.677 204.077 236.341 205.998 236.282 206.304C235.857 206.018 235.496 205.667 235.199 205.251C234.645 206.345 233.19 205.364 231.998 205.587C230.121 205.939 228.185 206.531 226.527 205.139C226.41 205.589 225.052 206.161 225.05 206.178C225.131 205.383 225.634 205.662 224.605 205.511C224.416 205.484 224.201 205.823 224.022 205.86C223.409 205.987 222.693 205.867 222.075 205.849C219.503 205.775 217.149 206.343 214.609 206.549C213.753 206.618 212.738 206.755 211.934 206.433C211.106 206.101 211.129 205.725 210.291 205.938C210.556 205.871 209.768 206.696 209.811 206.665C209.698 206.747 209.228 206.344 209.061 206.374C209.012 206.55 208.964 206.726 208.915 206.902C208.713 206.878 208.511 206.853 208.31 206.828C207.757 206.902 207.259 206.345 206.74 206.326C206.836 206.33 205.34 206.884 205.408 206.918C204.365 206.399 204.664 206.55 203.34 206.866C202.088 207.164 200.841 207.095 199.557 207.281C195.821 207.821 198.047 205.955 197.587 203.676ZM194.287 222.292C193.585 221.299 195.454 220.956 196.051 220.868C197.033 220.724 198.335 221.011 198.99 220.856C199.986 220.619 200.948 220.056 202.07 219.903C203.485 219.71 204.912 219.679 206.334 219.558C206.807 219.517 207.394 219.355 207.854 219.382C208.54 219.423 208.825 219.785 209.379 219.787C210.323 219.792 211.487 219.199 212.454 219.09C213.692 218.95 214.943 218.884 216.187 218.823C218.809 218.693 221.403 218.747 224.024 218.744C225.219 218.742 228.402 217.506 228.997 218.892C229.826 217.842 231.951 217.985 233.136 217.954C235.223 217.901 237.288 217.7 239.373 217.604C241.158 217.521 243.153 217.902 244.906 217.635C245.872 217.488 246.193 217.18 247.288 217.319C248.102 217.422 249.343 216.993 250.042 217.183C250.006 217.173 250.914 217.734 250.631 217.752C250.943 217.731 250.924 217.949 251.269 217.852C251.721 217.725 251.513 217.159 252.449 216.958C253.91 216.644 255.858 217.007 257.376 216.926C258.848 216.848 260.318 216.814 261.792 216.821C262.471 216.824 263.31 216.663 263.97 216.795C264.293 216.859 264.981 217.28 265.255 217.238C266.032 217.117 266.427 216.579 267.477 216.612C268.667 216.65 269.739 216.634 270.922 216.543C272.068 216.456 272.252 216.293 272.82 217.243C273.383 218.186 273.538 219.413 272.502 220.054C273.175 220.01 274.003 220.908 273.21 221.405C272.72 221.713 271.737 221.019 271.15 221.069C270.427 221.131 269.86 221.512 269.073 221.536C268.246 221.561 267.406 221.768 266.59 221.784C265.741 221.801 265.098 221.422 264.292 221.583C263.583 221.726 263.508 222.305 262.654 221.796C262.23 221.543 262.158 220.606 261.579 220.597C260.803 220.585 261.113 221.584 260.667 222.047C260.547 220.619 259.44 222.982 259 221.248C258.595 221.824 257.094 222.629 256.366 222.167C255.703 221.745 255.923 220.791 255.647 220.104C255.188 221.339 253.954 222.621 254.066 220.372C253.466 221.107 251.847 220.991 252.253 222.277C251.765 222.268 251.649 221.573 251.239 221.521C250.884 221.475 250.603 221.747 250.548 221.743C250.742 221.759 249.967 222.016 249.955 222.019C250.48 221.912 248.441 221.731 248.789 221.734C248.316 221.73 247.736 222.116 247.183 222.115C246.68 222.114 246.178 221.916 245.681 221.86C244.391 221.713 244.66 221.995 243.85 222.399C243.55 222.548 243.475 222.802 243.049 222.77C242.735 222.746 242.617 222.338 242.582 222.334C242.14 222.29 242.466 222.142 241.78 222.21C241.701 222.345 241.623 222.48 241.544 222.615C241.296 222.931 240.975 223.01 240.58 222.852C239.565 223.069 236.197 224.01 236.527 222.268C236.011 222.519 235.495 222.771 234.979 223.022C234.758 221.618 231.954 223.48 231.328 223.574C230.525 223.694 230.451 223.387 229.691 223.223C229.554 223.194 229.28 223.644 228.958 223.58C228.125 223.413 227.977 223.33 227.834 222.428C227.24 223.535 226.746 223.04 225.668 223.222C225.429 223.262 225.277 223.73 224.935 223.649C224.688 223.591 224.681 223.142 224.511 223.084C224.358 223.031 224.381 222.677 224.156 222.626C223.897 222.568 223.015 223.289 222.762 223.4C222.192 223.651 221.255 224.065 220.698 223.941C220.009 223.788 220.316 223.279 219.343 223.336C217.808 223.426 217.168 224.728 216.213 222.676C215.782 223.498 215.836 223.721 215.144 223.992C214.633 224.193 213.337 223.983 212.664 223.959C209.788 223.853 206.96 224.829 204.107 224.574C202.854 224.461 201.796 224.211 200.531 224.416C199.202 224.631 197.901 224.947 196.553 225.074C195.867 225.139 194.434 225.335 194.097 224.461C193.801 223.692 194.906 223.168 194.287 222.292ZM199.928 253.831C196.197 256.319 193.107 259.715 189.682 262.591C186.247 265.475 183.522 268.68 180.434 271.874C177.578 274.826 174.954 277.618 171.502 279.849C169.317 281.261 167.368 282.998 165.124 284.329C163.443 285.326 160.897 286.637 161.717 283.588C162.558 280.463 164.109 277.305 165.457 274.387C167.372 270.238 169.303 266.128 171.375 262.058C172.154 260.529 172.59 259.007 173.825 257.789C175.169 256.463 176.11 254.733 177.582 253.48C183.774 248.212 193.105 252.282 199.928 253.831ZM211.631 255.617C209.939 256.501 208.045 256.72 206.251 257.305C204.723 257.803 203.302 258.689 201.658 258.755C203.154 257.635 204.44 256.114 206.127 255.264C208.024 254.307 209.747 255.003 211.631 255.617ZM285.91 262.985C279.685 260.892 273.89 257.807 267.827 255.325C266.78 254.896 258.595 252.21 258.761 250.931C264.497 249.884 270.404 248.087 276.154 250.046C281.385 251.829 285.639 256.105 289.688 259.683C290.745 260.617 297.278 264.869 296.694 266.223C296.289 267.162 293.141 266.906 292.397 266.714C291.437 266.465 290.884 265.884 290.13 265.245C288.871 264.179 287.478 263.512 285.91 262.985ZM274.419 228.013C275.364 227.146 275.93 225.83 276.833 225.03C277.994 224.001 279.866 224.502 281.135 225.037C284.941 226.639 288.194 229.334 291.977 231.007C296.169 232.861 299.799 235.338 303.58 237.89C307.036 240.224 310.773 242.156 314.301 244.382C317.896 246.652 321.92 248.127 325.565 250.316C329.273 252.544 332.968 254.781 336.532 257.236C342.887 261.615 349.505 266.11 354.206 272.335C356.623 275.534 358.885 279.163 360.658 282.756C362.27 286.022 364.019 290.556 361.93 293.953C359.924 297.216 356.504 299.786 353.61 302.221C352.514 303.142 351.471 304.262 350.051 304.662C348.323 305.147 346.306 305.013 344.529 305.157C335.027 305.925 326.175 305.2 316.81 303.506C307.781 301.873 298.714 300.959 289.615 299.824C284.483 299.183 279.351 298.438 274.287 297.371C272.123 296.916 269.921 296.39 267.803 295.769C265.953 295.226 264.398 294.032 262.496 293.559C254.425 291.55 245.191 290.782 237.2 287.404C244.271 284.475 251.786 282.706 259.033 280.272C266.66 277.711 274.109 275.562 282.149 274.834C286.286 274.46 289.988 273.407 293.968 272.305C297.76 271.255 301.719 270.933 305.615 270.462C307.347 270.253 312.291 270.566 312.865 268.309C313.719 264.949 308.862 264.562 306.791 264.863C303.854 265.289 301.432 266.02 299.184 263.618C296.888 261.166 294.658 258.655 292.321 256.233C287.987 251.743 283.521 246.55 277.395 244.535C269.922 242.078 261.257 244.411 253.8 245.808C245.925 247.284 238.062 248.697 230.334 250.843C227.133 251.731 223.006 253.689 219.685 253.375C216.411 253.064 212.704 252.53 209.541 251.589C208.109 251.164 206.933 250.375 205.652 249.64C203.987 248.683 202.162 248.07 200.395 247.326C196.821 245.823 193.336 244.438 189.481 243.847C186.234 243.35 182.786 243.055 179.639 244.189C176.552 245.302 173.816 247.568 171.662 249.989C169.323 252.619 167.389 255.566 165.471 258.505C164.551 259.915 163.427 261.146 162.474 262.525C161.673 263.683 161.206 264.969 160.359 266.094C158.463 268.612 157.176 271.833 156.027 274.762C154.751 278.015 153.333 281.884 153.637 285.423C153.752 286.761 153.873 288.532 154.392 289.773C155.052 291.35 155.994 291.31 157.351 291.905C159.683 292.927 160.337 295.753 163.351 295.202C166.177 294.686 168.629 292.364 170.691 290.514C173.379 288.103 175.951 285.56 178.523 283.027C181.162 280.427 183.764 277.544 185.863 274.486C186.69 273.282 187.334 271.922 188.311 270.825C189.554 269.429 190.951 269.261 192.64 268.705C207.411 263.841 222.253 259.149 237.485 255.938C241.135 255.168 244.813 254.176 248.398 253.152C252.2 252.065 254.169 253.214 257.307 255.281C263.863 259.601 271.611 262.643 278.911 265.462C281.21 266.349 284.869 266.406 286.666 268.156C276.015 269.774 265.866 272.887 255.593 275.988C250.528 277.516 245.405 278.841 240.321 280.303C235.235 281.765 230.343 283.66 225.327 285.308C220.335 286.949 215.059 287.618 210.018 289.131C204.873 290.676 199.749 291.739 194.468 292.677C189.135 293.626 183.839 294.72 178.488 295.569C176.038 295.958 173.588 296.361 171.165 296.896C168.794 297.42 166.504 298.673 164.121 298.963C153.48 300.261 143.048 303.152 132.449 304.786C124.535 306.006 110.767 307.708 105.635 299.795C100.474 291.836 106.805 282.553 112.454 276.863C115.965 273.327 119.91 270.215 124.049 267.446C128.479 264.482 132.741 261.283 137.171 258.324C147.198 251.628 158.07 246.166 168.842 240.786C174.013 238.203 179.008 235.433 184.038 232.599C186.534 231.192 187.916 233.462 189.889 235.005C191.441 236.219 194.291 239.21 196.463 237.827C196.546 238.325 196.63 238.823 196.714 239.322C197.35 239.033 197.986 238.744 198.622 238.455C199.049 239.572 198.999 240.265 200.193 240.852C200.926 241.212 202.49 241.646 203.189 241.011C203.331 241.452 203.474 241.893 203.616 242.334C204.227 242.287 204.345 240.545 204.46 240.137C205.507 241.661 206.955 242.935 208.795 243.365C208.804 243.266 208.496 242.014 208.51 242.006C209.092 241.651 209.826 243.172 210.135 243.498C211.158 244.578 211.769 244.41 212.899 243.539C212.981 243.628 213.364 244.623 213.419 244.605C213.664 244.528 214.129 243.646 214.18 243.565C214.109 244.725 216.356 244.959 217.149 244.71C216.971 244.37 216.793 244.03 216.615 243.69C219.379 243.323 220.464 246.249 223.117 246.101C225.078 245.99 223.505 245.563 224.615 244.726C225.585 243.995 225.758 245.594 225.853 245.544C226.038 245.351 226.181 245.129 226.283 244.878C226.642 246.248 229.499 247.478 229.203 245.225C230.327 245.673 231.125 246.416 232.369 246.573C233.881 246.764 235.496 246.444 237.004 246.32C240.254 246.05 243.317 245.39 246.246 243.906C247.983 243.026 249.832 242.228 251.465 241.166C252.831 240.278 255.423 237.581 257.242 238.743C256.776 237.373 258.97 238.642 259.039 236.878C259.392 237.143 259.744 237.407 260.096 237.672C260.308 237.21 260.249 236.483 260.531 236.08C260.92 235.528 261.11 235.853 261.441 235.542C261.812 235.195 262.135 234.263 262.58 233.998C263.038 233.725 263.576 234.05 264.069 233.812C264.819 233.449 268.047 229.902 267.501 232.941C268.888 232.471 267.818 232.041 267.992 231.12C268.34 229.273 269.187 230.602 270.031 230.763C271.413 231.027 271.385 229.888 272.156 229.061C272.86 228.305 274.183 227.966 273.727 226.654C274.248 226.933 274.358 227.481 274.419 228.013ZM191.103 188.567C190.014 189.775 189.199 189.258 187.988 189.081C187.859 188.649 187.637 188.589 187.324 188.901C186.966 189.107 186.58 189.242 186.167 189.307C185.174 189.551 184.143 189.447 183.172 189.816C183.2 189.492 183.541 188.916 183.323 188.587C182.301 189.291 181.668 189.739 180.414 189.752C179.398 189.762 177.615 188.989 176.771 189.914C176.745 189.554 176.719 189.194 176.693 188.834C176.28 189.039 175.92 189.314 175.614 189.658C175.557 189.124 175.524 188.721 175.171 188.29C174.499 189.666 173.764 189.698 172.46 189.173C172.643 189.246 171.154 188.377 171.211 188.618C170.741 186.642 178.168 186.805 178.948 186.727C180.895 186.531 182.842 186.417 184.792 186.238C186.642 186.069 188.022 185.781 189.302 187.319C188.732 185.098 194.128 185.208 191.103 188.567ZM105.947 154.117C106.152 157.476 106.902 161.045 105.591 164.277C104.538 166.876 102.437 169.81 100.173 171.505C95.5387 174.977 91.6103 170.729 90.9652 166.06C90.2928 161.191 91.6257 155.241 95.8328 152.238C98.3466 150.445 100.781 150.569 103.675 151.159C104.355 151.298 105.458 151.244 105.847 151.917C105.938 152.075 105.856 154.114 105.947 154.117ZM167.502 198.861C166.702 199.264 165.864 199.5 165.159 200.048C164.913 200.238 164.83 200.672 164.57 200.832C164.096 201.124 163.419 200.93 162.926 201.171C162.109 201.569 161.524 202.138 160.553 202.505C159.111 203.049 157.847 203.796 156.485 204.504C154.215 205.683 151.778 206.696 149.405 207.657C148.207 208.141 144.894 209.086 145.008 210.834C144.74 210.906 144.466 210.322 143.907 210.369C143.139 210.432 142.124 211.318 141.326 211.536C139.835 211.943 138.68 211.978 138.68 213.874C138.205 213.552 138.085 212.766 137.453 212.661C136.742 212.544 136.443 213.308 135.874 213.546C135.204 213.826 134.371 213.558 133.708 213.856C133.417 214.162 133.095 214.429 132.74 214.656C132.379 214.698 132.02 214.687 131.663 214.623C130.255 214.921 128.959 215.449 127.547 215.723C126.171 215.991 125.229 216.088 125.807 217.709C124.336 217.996 123.976 216.44 122.316 217.009C120.281 217.706 118.379 218.209 116.254 218.635C115.171 218.852 114.038 219.336 112.947 219.45C112.168 219.531 111.442 219.253 110.675 219.339C109.751 219.443 109.008 219.869 108.052 219.885C107.145 219.901 106.193 219.739 105.302 219.579C105.428 219.937 105.585 220.28 105.775 220.608C105.159 220.48 104.874 219.742 104.352 219.632C103.804 219.518 103.313 220.081 102.857 219.957C102.663 219.903 102.792 219.306 102.444 219.192C102.128 219.089 101.994 219.211 101.68 219.162C101.575 219.146 100.261 219.075 100.052 219.185C99.6859 219.378 100.056 219.741 99.9833 219.794C98.7476 220.706 98.7327 220.214 98.1818 219.262C97.3728 217.864 96.3973 218.746 94.9271 218.502C93.2886 218.229 91.9977 218.95 90.3848 218.847C88.6453 218.736 86.6011 217.439 85.0632 216.682C81.7421 215.046 78.5037 213.498 75.7147 211.02C70.2625 206.177 65.8268 200.22 63.2116 193.401C60.4016 186.076 59.8691 178.435 60.0947 170.663C60.2304 165.989 60.6057 161.318 61.3449 156.699C61.8539 153.521 61.9604 147.874 65.555 146.427C66.1731 153.867 64.223 161.449 65.4527 168.841C65.823 171.067 66.7261 174.034 68.4352 175.683C70.9657 178.124 71.5577 174.595 71.7867 172.646C72.2125 169.026 73.004 165.426 73.5643 161.824C74.1241 158.223 74.5196 154.581 75.2982 151.018C75.582 149.719 77.8711 140.204 79.5511 140.655C79.2112 147.576 78.3085 154.379 78.273 161.326C78.2588 164.112 78.0085 167.055 78.4121 169.823C78.6197 171.248 79.9213 175.428 82.1599 175.079C84.2315 174.757 81.954 171.812 81.7605 170.677C81.2482 167.672 81.9014 163.932 82.379 160.949C83.283 155.304 85.2999 149.522 88.5966 144.804C91.5491 140.579 96.0952 136.558 101.572 137.303C103.912 137.621 105.737 138.201 106.913 140.33C107.835 142.001 111.469 143.9 109.364 145.993C107.446 147.897 104.346 146.373 102.215 145.919C99.6054 145.363 96.8091 146.031 94.627 147.555C90.8831 150.169 88.7494 154.842 88.053 159.225C87.1143 165.135 89.6234 180.604 98.8649 177.137C105.004 174.834 109.628 166.549 109.113 160.206C108.906 157.667 107.91 152.847 111.435 152.161C115.95 151.283 116.588 156.244 116.131 159.468C115.466 164.157 112.98 168.518 110.134 172.226C107.655 175.457 104.771 177.478 101.787 180.147C100.904 180.937 98.6505 182.713 99.0288 184.183C99.4436 185.793 102.985 186.251 104.403 186.516C111.417 187.825 119.328 186.621 126.33 185.707C140.722 183.829 154.926 179.202 166.727 170.697C167.204 175.959 167.805 181.205 168.026 186.487C168.134 189.05 168.161 191.652 168.455 194.201C168.636 195.77 169.291 197.961 167.502 198.861ZM127.595 217.199C127.03 217.494 127.641 215.712 127.484 216.302C128.328 216.603 128.365 216.902 127.595 217.199ZM187.299 153.51C188.196 152.525 190.646 150.181 191.424 152.405C191.713 151.457 191.751 150.053 192.868 151.333C193.313 149.76 198.219 149.907 199.434 149.838C203.326 149.616 207.233 149.497 211.11 149.112C219.078 148.321 227.185 148.729 235.182 148.703C236.913 148.697 238.64 148.604 240.359 148.854C242.018 149.096 243.762 149.774 245.453 149.526C246.956 149.306 247.941 148.893 249.489 149.069C251.34 149.281 253.138 149.431 255.006 149.424C263.268 149.394 271.526 149.728 279.79 149.741C281.4 149.743 283.33 149.43 284.841 150.111C285.401 150.364 286.012 151.205 286.44 151.298C286.93 151.403 286.639 150.641 287.295 150.985C288.173 151.446 287.493 152.862 286.913 153.087C287.26 152.952 286.285 152.82 286.383 152.815C285.92 152.839 285.526 153.193 285.029 153.171C284.272 153.138 283.638 152.678 283.029 152.273C283.018 152.438 283.353 153.541 282.971 153.596C282.642 153.644 282.333 152.557 282.3 152.305C280.451 153.93 278.493 153.024 276.199 153.23C274.572 153.376 271.179 154.458 270.044 152.765C269.996 153.125 269.851 153.44 269.609 153.71C269.285 154.203 269.004 154.161 268.767 153.583C268.687 153.587 267.897 153.758 267.881 153.757C267.325 153.713 266.603 153.514 266.038 153.466C265.162 153.392 265.323 154.027 264.626 154.037C264.245 154.042 263.273 153.494 262.609 153.46C261.458 153.4 260.283 153.887 259.148 153.739C258.366 153.638 257.66 153.004 256.893 152.979C255.938 152.948 255.628 153.674 254.871 152.654C254.716 152.612 254.62 153.212 254.558 153.222C254.573 153.22 253.838 153.328 253.751 153.362C253.6 153.42 253.012 153.688 252.833 153.691C252.447 153.698 252.237 153.422 251.828 153.416C251.15 153.404 248.987 153.999 249.047 152.75C246.629 153.643 244.566 153.295 242.084 153.506C240.945 153.603 240.229 153.451 239.146 153.243C237.789 152.982 236.888 153.31 235.535 153.376C234.234 153.439 233.824 152.891 232.727 152.396C232.294 152.201 232.008 151.943 231.477 152.052C231.174 152.114 231.389 152.622 231.3 152.657C230.833 152.836 230.508 152.646 229.868 152.689C228.687 152.77 228.217 153.753 227.003 152.83C227.406 152.781 227.81 152.732 228.214 152.683C227.053 152.193 225.521 151.942 225.802 153.728C224.812 153.59 225.669 152.918 225.182 152.677C224.696 152.437 224.151 152.839 223.538 153.038C221.92 153.561 220.57 153.301 218.882 153.208C216.965 153.101 212.479 154.66 211.105 152.636C211.064 153.062 210.605 154.251 209.993 154.195C209.794 154.177 210.35 152.915 210.413 152.781C210.097 153.45 208.66 153.577 207.952 153.923C208.031 153.564 208.111 153.205 208.19 152.846C207.532 153.544 207.213 153.118 206.439 153.351C206.101 153.454 205.611 154.149 205.322 154.191C204.985 153.801 204.561 153.634 204.051 153.688C203.711 153.603 203.372 153.587 203.033 153.638C201.675 153.737 200.437 154.489 199.086 153.977C197.916 153.533 197.464 152.391 196.767 154.207C196.583 153.884 196.4 153.562 196.216 153.239C195.99 153.589 195.764 153.94 195.537 154.29C194.653 153.712 194.598 153.378 193.58 153.59C193.341 153.685 193.096 153.672 192.845 153.55C192.785 153.728 192.725 153.906 192.665 154.083C192.641 154.531 192.508 154.678 192.266 154.526C192.062 154.453 191.878 154.343 191.714 154.194C191.04 154.245 190.18 154.422 189.457 154.324C189.178 154.287 187.429 153.367 187.299 153.51ZM207.912 141.487C207.992 141.608 208.071 141.729 208.15 141.851C207.057 142.426 206.8 142.096 206.687 140.94C207.221 140.95 207.312 141.887 207.912 141.487ZM208.59 140.808C209.116 141.04 209.72 141.495 210.216 140.885C210.55 141.853 208.07 143.173 208.59 140.808ZM211.991 141.236C213.097 141.98 210.445 141.382 210.449 141.383C210.926 140.944 211.439 140.895 211.991 141.236ZM221.501 137.083C221.88 138.989 222.925 138.935 224.614 138.049C227.075 136.756 227.491 134.639 227.662 132.111C227.827 129.687 228.125 128.749 230.633 129.255C232.383 129.608 233.864 129.311 235.628 129.263C237.512 129.211 238.175 129.498 238.327 131.429C238.479 133.363 238.824 134.831 240.232 136.303C241.664 137.799 243.573 138.693 245.433 139.53C246.389 139.96 247.288 140.423 248.346 140.516C248.756 140.552 250.891 140.283 250.936 140.956C250.969 141.462 248.013 142.89 247.699 143.06C246.328 143.803 244.961 144.47 243.463 144.92C240.018 145.956 236.365 146.017 232.797 145.954C227.043 145.853 219.091 143.428 215.65 138.34C217.6 137.921 219.55 137.502 221.501 137.083ZM220.984 120.571C220.074 119.809 219.485 118.659 218.728 117.757C218.347 117.303 218.067 117.158 217.704 116.93C217.322 116.691 217.107 117.03 216.788 116.466C215.964 115.01 218.507 112.962 215.81 112.401C214.898 112.211 212.702 112.932 212.436 111.629C212.059 109.787 215.587 109.667 216.417 108.732C218.067 106.873 216.947 103.722 217.952 101.577C218.904 99.546 221.36 99.1851 223.299 98.5748C226 97.7248 228.734 97.232 231.477 96.5516C233.395 96.0762 236.581 94.1658 238.359 95.8537C235.615 96.4611 237.21 97.4143 239.039 97.9525C241.111 98.5624 243.308 98.8003 245.455 98.9703C247.665 99.1449 249.917 99.1783 252.101 98.7392C254.12 98.333 256.376 96.5836 258.494 97.0317C257.319 99.0676 253.819 100.18 251.692 100.713C250.608 100.985 249.914 100.9 250.06 102.247C250.201 103.552 251.339 104.86 251.596 106.22C251.936 108.019 251.639 109.672 250.997 111.365C250.365 113.029 250.217 113.247 250.769 114.838C251.63 117.315 249.78 120.053 248.07 121.852C241.154 129.125 227.919 126.37 220.984 120.571ZM238.557 77.0998C238.562 77.1459 238.585 77.1741 238.557 77.0998ZM240.711 95.4557C240.424 95.6692 238.773 96.1168 238.842 95.4736C238.935 94.6117 240.423 94.9231 240.711 95.4557ZM244.475 78.045C244.088 77.7571 243.002 77.8754 243.796 76.7842C244.055 77.2643 244.265 77.6546 244.475 78.045ZM218.428 71.1469C218.922 69.8678 219.469 68.6779 219.692 67.3163C219.829 66.4774 219.556 65.5195 220.733 65.3879C219.233 64.7362 219.218 62.1638 219.129 60.8303C219.008 58.9938 218.426 56.535 219.235 54.8258C220.067 53.07 221.188 53.099 221.527 55.1901C221.659 56.0088 221.152 56.2736 221.057 56.8438C220.868 57.9718 221.243 57.7245 221.974 56.8652C222.275 57.7386 222.39 59.0511 223.617 58.9955C223.535 58.7593 223.065 58.2383 223.223 57.9449C223.463 57.4943 224.642 58.1828 224.791 58.287C225.867 59.037 226.101 59.7216 225.333 60.6676C226.395 60.7817 225.504 61.7085 226.19 61.9502C227.236 62.3188 226.534 60.5724 226.421 60.2653C227.058 60.513 227.271 60.7958 227.674 61.2972C227.911 61.6431 228.127 62.0023 228.321 62.3739C228.538 63.0521 228.984 63.2221 229.66 62.8838C231.015 63.3075 232.886 63.2413 234.1 63.9819C234.655 64.3202 234.855 65.0603 235.319 65.3414C235.84 65.6578 236.539 65.5143 237.099 65.7129C236.894 66.1768 237.06 66.4279 237.596 66.4672C238.013 66.5052 238.416 66.5987 238.806 66.7474C239.097 66.5283 239.415 66.3553 239.757 66.2293C239.987 66.6338 240.313 66.7337 240.734 66.53C241.983 66.7632 242.584 67.2343 243.378 67.9386C244.091 68.5707 243.511 68.6219 244.292 68.566C244.605 68.5433 245.155 68.0129 245.873 68.1162C246.286 68.1965 246.685 68.3234 247.068 68.4968C247.483 68.8504 247.924 68.8948 248.389 68.6305C249.146 68.999 249.22 69.6521 250.143 69.7413C251.163 69.8404 250.835 68.5728 251.536 70.3606C252.479 68.4652 252.825 71.4847 253.799 71.7286C254.808 71.9815 254.917 71.1661 255.781 72.0571C256.04 72.324 256.025 72.7652 256.316 73.0484C256.792 73.5118 257.436 73.4191 257.85 74.0512C257.62 73.6984 257.905 75.3013 257.9 75.2483C257.964 75.9556 257.334 76.7479 258.626 76.6877C258.611 76.762 257.991 77.6636 257.87 77.5615C257.84 77.4586 257.815 77.3544 257.795 77.2489C257.656 77.3082 257.595 78.1671 257.62 78.3188C257.73 78.3358 257.775 78.2547 257.755 78.0753C257.543 78.7377 257.863 79.1584 257.455 79.7871C257.194 80.189 256.479 80.491 256.099 80.7391C255.183 81.3379 254.287 81.9384 253.393 82.5756C251.309 84.062 248.975 85.8541 246.351 86.1641C247.669 84.8743 255.253 79.993 251.449 78.5917C250.743 78.332 249.459 78.086 248.721 78.0313C247.803 77.9634 246.854 78.487 245.842 78.1603C244.621 77.7665 245.081 76.6223 244.335 76.2119C242.751 75.341 243.125 77.389 242.626 77.9254C242.102 77.3774 242.214 77.1109 241.388 77.0614C240.548 77.011 240.348 77.7845 239.368 77.3027C238.018 76.6386 238.732 75.3158 236.817 75.2846C236.85 74.9942 237.127 74.1827 236.762 73.9564C236.269 74.5932 236.651 75.3052 236.193 75.918C235.964 76.2255 235.468 76.4707 235.105 76.5702C234.256 76.8026 234.135 77.2476 234.274 75.9736C233.645 77.1032 231.715 76.6385 230.567 76.5249C228.702 76.34 226.719 75.9881 224.93 75.3918C223.276 74.84 222.392 73.8923 221.028 73.03C220.512 72.7037 220.266 72.8284 219.526 72.626C218.796 72.4261 218.084 72.0387 218.428 71.1469ZM222.365 51.1446C222.647 50.9755 222.849 53.4992 222.508 53.9707C221.883 52.9854 220.775 51.5401 222.365 51.1446ZM223.265 50.1379C224.171 49.3209 223.541 51.4312 223.375 51.7853C223.04 51.5709 222.704 51.3564 222.369 51.142C222.797 50.8802 222.904 50.4638 223.265 50.1379ZM257.439 46.7369C265.808 48.4872 274.1 51.7588 280.812 57.1428C286.926 62.0467 291.241 69.0046 293.66 76.4058C296.172 84.088 295.328 92.6112 289.353 98.4906C286.206 101.588 282.05 103.456 278.089 105.279C276.191 106.153 274.237 106.881 272.332 107.734C270.963 108.347 269.293 109.327 267.731 109.157C268.528 108.322 269.684 108.305 270.648 107.794C271.813 107.177 272.764 105.991 273.768 105.145C274.765 104.304 276.976 101.658 278.508 102.298C278.295 100.888 279.907 100.234 280.634 99.3038C281.402 98.3202 281.457 97.17 282.873 96.848C281.352 95.6624 281.818 93.4261 282.149 91.8121C282.572 89.7479 282.767 87.8529 282.934 85.7524C283.235 81.9653 283.477 77.1412 281.378 73.812C280.696 72.731 279.829 71.7376 279.221 70.6148C278.488 69.2617 278.65 68.0705 278.65 66.5872C277.311 67.4841 277.028 65.6553 276.463 64.7639C276.038 64.0951 275.48 63.7214 275.343 62.88C275.244 62.2675 275.91 62.1642 275.545 61.5222C275.097 61.8597 274.918 62.3824 274.691 62.8676C274.277 62.7027 274.765 62.1287 274.528 61.9421C274.521 61.937 273.723 61.5914 273.763 61.6414C273.249 60.9926 273.084 59.9159 272.832 59.1437C271.891 59.6187 272.067 59.5627 271.018 58.7692C270.833 58.6295 269.909 57.988 269.822 57.7783C269.416 56.7977 270.128 57.3785 269.929 56.7699C269.357 55.0218 266.15 55.3524 265.896 52.733C264.332 53.7226 263.736 52.3204 262.811 51.3231C261.863 50.3015 260.274 49.9086 260.359 48.2882C259.867 48.456 259.375 48.6234 258.883 48.7904C259.139 47.2952 256.91 47.3904 256.103 46.6319C256.551 46.6374 256.996 46.6725 257.439 46.7369ZM258.714 139.349C259.49 138.657 259.254 139.577 259.753 139.472C260.18 139.382 260.264 139.06 260.674 138.962C262.36 138.555 264.881 139.066 266.654 138.978C268.708 138.877 272.228 139.302 273.207 141.697C273.796 143.139 272.897 142.648 271.905 142.541C271.137 142.458 270.454 142.613 269.693 142.606C269.317 142.663 268.942 142.658 268.569 142.588C268.387 142.469 268.279 142.3 268.246 142.083C267.188 141.924 266.064 142.548 264.892 142.579C263.328 142.62 261.938 142.321 260.749 141.269C260.277 141.971 259.955 142.319 259.105 142.397C259.083 142.399 258.253 142.066 258.125 142.033C257.955 141.989 257.525 142.345 257.197 142.243C257.778 141.32 257.863 140.107 258.714 139.349ZM365.537 147.683C365.813 146.725 366.043 145.756 366.295 144.792C370.156 149.173 373.534 155.036 375.055 160.654C376.042 164.304 377.579 170.919 372.871 172.802C369.036 174.335 366.897 168.838 365.927 166.13C363.785 160.153 363.785 153.764 365.537 147.683ZM192.807 79.047C192.856 79.0371 190.307 80.5145 191.147 79.3182C191.484 78.8373 192.764 78.499 193.331 78.499L192.807 79.047ZM190.355 79.6731C190.06 79.9204 189.762 80.1647 189.461 80.4056C189.173 79.9511 188.884 79.4967 188.596 79.0423C189.164 78.8031 191.58 78.6237 190.355 79.6731ZM188.558 125.607C188.025 125.247 187.602 125.438 187.442 126.042C187.442 125.441 187.756 124.044 188.239 123.881C188.551 123.776 187.202 122.185 187.581 121.768C188.546 122.319 187.968 122.846 188.251 123.557C188.378 123.878 188.761 124.181 188.845 124.427C188.987 124.846 189.563 126.284 188.558 125.607ZM185.946 122.027C185.4 122.166 186.356 123.065 186.355 123.462C186.354 123.762 185.992 123.993 185.843 124.404C185.519 125.294 186.076 125.895 185.159 126.575C185.159 124.624 183.846 119.454 186.37 118.504C185.139 117.537 186.15 116.422 187.115 117.578C188.043 118.69 187.452 121.642 185.946 122.027ZM184.63 114.328C184.134 112.574 182.64 111.961 180.933 112.065C180.999 111.167 181.681 109.872 182.174 111.491C182.377 111.012 182.518 110.388 182.98 110.071C183.758 112.504 187.64 113.848 185.223 116.484C185.026 115.765 184.834 115.045 184.63 114.328ZM180.12 112.195C171.131 112.845 158.512 114.704 151.319 107.837C146.629 103.36 146.88 96.3876 150.67 91.4132C152.833 88.5747 155.785 86.5759 158.751 84.6718C159.895 83.9368 160.864 83.4516 162.12 83.0292C162.324 83.0074 162.515 83.0527 162.694 83.165C162.765 82.8627 162.935 82.6389 163.208 82.4928C163.693 82.234 164.384 82.1417 164.663 81.6044C164.365 82.6132 164.212 83.6519 164.102 84.6958C163.86 84.4147 163.618 84.1337 163.376 83.8527C163.174 85.7537 161.187 84.6031 160 84.8406C160.782 85.9186 161.341 86.3102 161.408 87.735C160.826 86.6638 159.609 85.9595 158.477 85.6145C159.092 87.4262 159.526 88.5016 158.907 90.4885C158.16 90.0631 158.109 89.0415 157.203 88.7968C156.964 89.9815 156.921 91.2961 156.615 92.4459C154.293 91.3905 154.52 94.2329 155.452 95.6393C155.947 96.3876 156.191 97.2537 156.633 97.9721C157.718 99.7339 156.894 97.0991 158.1 97.2243C157.829 99.0826 157.735 99.2675 159.099 100.628C160.431 101.955 161.122 103.796 162.546 105.043C162.958 104.518 162.31 103.968 162.253 103.465C163.579 103.687 164.199 105.012 165.474 103.838C166.029 104.918 166.631 106.106 167.961 106.328C167.082 104.661 169.651 105.791 170.309 106.028C170.809 106.207 171.704 106.35 171.897 106.419C172.983 106.81 172.239 106.109 172.897 107.39C173.865 107.099 174.23 106.299 175.387 106.975C176.327 107.524 176.33 108.466 176.544 109.43C176.769 108.799 176.995 108.169 177.243 107.546C177.496 107.652 178.555 108.814 178.439 108.82C180.918 108.698 180.831 110.232 180.12 112.195ZM167.499 80.746C167.997 80.3979 168.605 80.8613 169.164 80.7366C169.938 80.5644 170.377 79.9037 171.242 79.8328C171.002 80.599 170.55 80.5273 170.168 81.1291C170.038 81.3341 170.106 81.8261 169.99 81.944C169.021 82.9331 168.686 82.1259 167.697 81.3772C167.783 82.2801 167.957 82.5654 167.104 82.8076C166.331 83.0271 165.056 82.2186 164.667 81.5984C164.995 80.9433 166.904 81.1628 167.499 80.746ZM173.667 79.3348C174.506 79.4147 173.495 81.8825 172.292 79.4886C172.745 79.3903 173.204 79.3391 173.667 79.3348ZM177.983 78.8578C179.306 78.5887 183.721 77.3347 184.213 79.3882C184.301 79.337 184.629 78.1778 184.782 78.3192C185.393 78.8859 185.462 79.6372 185.415 80.4244C184.676 78.8902 184.939 80.2377 184.438 80.1326C184.307 80.1049 184.107 80.3483 183.776 80.248C183.342 80.116 183.031 79.1956 182.757 78.8838C182.301 79.533 181.735 80.3688 180.821 80.3125C180.175 80.2727 179.132 78.613 179.97 80.4299C179.478 80.268 178.909 79.9016 178.361 79.975C177.748 80.0575 177.429 80.661 176.854 80.7583C175.579 80.9736 175.387 79.7512 174.56 79.0875C175.701 79.0213 176.856 79.0867 177.983 78.8578ZM185.991 78.8381C186.084 78.417 187.242 78.247 187.537 78.3807C188.257 78.7066 187.991 79.1366 187.859 79.8525C187.324 79.6005 186.79 79.3489 186.256 79.0969C187.053 80.3765 185.609 80.5623 185.991 78.8381ZM410.196 153.79C410.102 150.724 410.012 147.604 409.232 144.619C408.686 142.53 407.345 138.783 404.809 138.421C400.983 137.873 398.865 145.408 397.793 147.995C397.579 144.95 397.766 141.708 396.612 138.818C395.688 136.502 393.354 134.308 391.343 136.909C389.554 139.224 389.21 142.642 388.74 145.427C388.129 149.036 387.763 152.672 387.317 156.303C385.57 152.938 385.265 149.086 383.884 145.589C382.581 142.288 380.53 139.136 378.555 136.201C376.942 133.803 374.979 131.549 372.452 130.083C370.253 128.807 366.406 127.427 364.31 129.546C362.561 131.314 362.835 133.68 362.926 135.91C362.966 136.904 363.123 137.585 362.246 138.086C361.815 138.332 361.142 138.204 360.669 138.336C359.906 138.548 359.321 138.908 358.676 139.386C354.152 142.737 352.067 148.776 351.422 154.16C350.605 160.981 353.272 166.829 355.569 173.071C355.935 174.065 357.097 176.176 356.936 177.286C356.76 178.503 355.228 178.534 354.194 178.56C351.071 178.637 347.807 178.405 344.7 178.115C337.302 177.425 329.91 173.875 323.286 170.706C322.077 170.128 320.367 169.797 319.381 168.886C318.454 168.03 318.209 166.659 317.409 165.677C315.444 163.267 314.193 161.211 311.3 159.756C308.354 158.274 305.348 156.904 302.474 155.281C298.919 153.272 295.636 150.729 292.229 148.48C285.9 144.302 279.612 139.722 272.901 136.169C269.783 134.518 266.298 134.251 263.061 132.899C259.908 131.583 256.038 131.581 252.747 132.412C251.145 132.817 250.054 133.778 248.58 134.404C246.853 135.139 245.444 134.328 243.924 133.451C241.601 132.112 239.299 129.929 242.606 128.484C243.728 127.994 245.134 127.808 246.114 127.037C247.159 126.216 247.997 124.701 248.847 123.672C250.735 121.385 251.863 118.752 254.627 117.33C257.684 115.757 261.307 115.329 264.566 114.301C268.097 113.187 271.555 111.863 275.02 110.563C281.264 108.221 287.755 105.692 292.241 100.536C296.111 96.0878 297.798 90.3463 297.641 84.5147C297.322 72.5931 290.915 60.4942 281.721 53.0405C270.448 43.9006 256.106 40.8528 241.866 41.0125C235.183 41.0877 227.207 41.9594 221.631 46.0062C216.815 49.5016 216.013 55.615 216.73 61.1336C217.02 63.3733 218.014 66.3288 216.429 68.3024C215.542 69.4065 213.95 69.6798 212.756 70.3683C211.254 71.2332 209.93 72.0622 208.23 72.5196C201.006 74.4638 193.398 73.7868 186.012 73.6792C173.709 73.4998 161.098 76.8196 151.92 85.4598C144.508 92.4365 142.285 105.592 151.325 112.394C158.628 117.889 170.084 117.284 178.695 116.326C181.366 116.028 183.202 115.596 183.208 118.852C183.215 122.409 182.624 126.126 183.534 129.618C184.968 135.118 190.27 135.249 194.958 134.065C197.432 133.44 199.823 132.5 202.172 131.516C205.617 130.073 208.775 127.951 212.177 126.51C214.484 125.534 216.211 128.691 218.257 126.502C218.635 126.098 218.705 125.495 219.275 125.288C220.169 124.963 221.668 126.1 222.451 126.46C223.625 126.999 224.808 127.395 225.277 128.691C225.715 129.904 225.523 131.833 225.103 133.03C224.19 135.631 221.732 135.116 219.487 134.943C215.573 134.639 211.685 133.995 207.772 133.725C204.261 133.482 200.973 134.528 197.945 136.253C191.585 139.877 186.381 145.641 180.867 150.382C178.028 152.821 175.285 155.457 172.198 157.581C170.856 158.505 169.403 159.354 168.236 160.502C167.079 161.641 166.952 162.676 166.556 164.191C165.851 166.889 162.35 168.208 160.162 169.632C157.067 171.645 153.786 173.065 150.317 174.3C142.97 176.915 135.565 178.742 127.884 180.092C124.124 180.753 120.394 181.187 116.597 181.544C113.324 181.852 109.843 182.856 106.574 182.054C107.515 180.532 109.184 179.618 110.483 178.441C112.159 176.924 113.583 175.127 114.851 173.265C117.319 169.639 119.05 165.748 119.448 161.35C119.806 157.391 119.395 152.656 116.999 149.312C116.171 148.157 114.533 147.843 113.792 146.802C113.056 145.768 113.336 143.987 112.933 142.781C111.906 139.714 108.859 135.913 106.178 134.131C103.268 132.198 99.0126 131.487 95.6517 132.495C89.4256 134.361 85.6012 140.992 82.7523 146.352C81.196 143.088 83.8022 138.246 80.7619 135.573C78.1976 133.319 76.1624 137.686 75.3046 139.555C71.2786 148.326 70.3643 157.629 68.6775 167.014C67.9901 166.339 68.3423 164.606 68.407 163.8C68.5272 162.301 68.5161 160.83 68.5191 159.324C68.5272 155.52 69.2369 151.698 68.9116 147.897C68.7237 145.7 68.0209 141.068 64.818 141.798C62.1017 142.417 60.4003 146.224 59.5468 148.551C58.3158 151.908 58.0316 155.231 58.1082 158.777C58.193 162.696 57.4439 166.55 57.2624 170.462C56.9097 178.063 57.2581 185.597 59.4462 192.932C63.0292 204.943 71.2675 214.923 82.2626 220.95C88.3205 224.27 95.0409 226.371 101.951 226.823C105.695 227.068 109.31 226.624 113.022 226.238C116.685 225.857 120.368 225.681 124.025 225.234C132.17 224.239 140.106 221.669 147.508 218.211C151.405 216.391 155.07 214.156 158.903 212.215C160.44 211.437 161.48 210.463 162.792 209.38C164.093 208.308 164.454 208.223 165.933 208.223C165.499 207.066 166.766 206.709 167.33 205.977C167.298 206.332 167.267 206.687 167.235 207.042C167.665 206.113 168.065 206.122 168.435 207.069C168.801 206.008 169.072 204.918 169.514 203.884C171.203 204.737 171.061 206.762 173.32 205.283C175.181 204.066 176.892 202.63 178.788 201.437C183.109 198.719 186.834 195.183 191.167 192.496C191.167 195.113 191.352 197.752 191.001 200.356C190.667 202.831 189.74 205.145 189.002 207.515C187.642 211.888 187.548 216.561 186.041 220.889C185.417 222.682 183.793 224.181 183.327 225.926C182.852 227.706 183.949 229.133 182.111 230.302C180.814 231.126 179.194 231.474 177.759 231.972C175.57 232.733 173.491 233.806 171.36 234.716C161.364 238.985 151.614 243.333 142.352 249.072C133.563 254.519 124.64 260.144 116.566 266.613C109.559 272.228 102.475 279.486 100.77 288.645C99.1145 297.528 103.524 307.063 112.379 309.989C116.984 311.51 122.189 311.322 126.984 311.387C132.143 311.458 137.61 310.219 142.683 309.322C148.04 308.375 153.305 306.893 158.678 306.048C163.833 305.236 168.56 303.423 173.631 302.305C179.031 301.115 184.57 300.469 190 299.398C192.445 298.916 194.84 298.205 197.292 297.759C199.976 297.27 202.689 297.087 205.346 296.44C210.501 295.184 215.437 293.16 220.614 291.992C222.942 291.467 225.234 290.763 227.562 290.272C229.706 289.821 231.376 288.62 233.525 289.606C235.261 290.403 236.645 291.769 238.288 292.721C240.419 293.955 242.665 295.061 244.887 296.123C249.35 298.258 253.979 299.733 258.646 301.336C263.548 303.019 268.362 304.939 273.441 306.051C278.647 307.19 283.959 307.508 289.201 308.409C299.938 310.255 310.583 311.084 321.482 311.151C326.99 311.185 332.498 310.534 337.994 310.611C342.859 310.68 347.089 311.773 351.538 309.195C358.647 305.076 366.892 298.871 366.718 289.859C366.559 281.697 361.646 273.899 357.038 267.461C351.442 259.643 343.464 254.138 335.644 248.745C327.31 242.998 317.949 239.027 309.19 234.01C304.71 231.444 300.579 228.684 295.715 226.861C293.393 225.991 291.128 224.982 288.833 224.045C286.987 223.291 284.32 222.875 282.74 221.624C281.754 220.843 281.659 219.661 281.399 218.501C280.822 215.933 279.916 213.498 279.038 211.022C277.342 206.24 276.215 201.37 275.486 196.355C274.791 191.574 273.249 186.602 274.048 181.743C279.301 186.808 284.7 191.676 290.075 196.607C292.089 198.454 294.066 200.341 296.091 202.177C297.611 203.556 299.512 205.604 301.631 206.013C304.337 206.536 303.349 203.552 305.207 203.09C306.343 202.808 309.768 205.683 310.666 206.251C316.357 209.852 322.659 212.134 328.918 214.585C335.482 217.155 342.232 219.438 349.295 220.085C355.819 220.684 362.49 219.916 368.786 218.144C381.324 214.617 390.55 206.246 397.321 195.396C405.036 183.033 410.65 168.549 410.196 153.79Z" fill="#151648"/>
<path fill-rule="evenodd" clip-rule="evenodd" d="M218.573 126.838C218.571 126.841 218.552 126.881 218.552 126.881C218.575 126.865 218.582 126.851 218.573 126.838Z" fill="black"/>
<path fill-rule="evenodd" clip-rule="evenodd" d="M219.179 126.997C219.132 126.603 219.03 126.218 218.875 125.84C218.46 126.496 218.088 126.777 218.634 127.472C218.815 127.313 218.997 127.155 219.179 126.997Z" fill="black"/>
<path fill-rule="evenodd" clip-rule="evenodd" d="M248.09 220.727C248.555 220.235 247.743 220.049 247.434 220.043C247.465 220.571 247.202 221.837 247.927 222.082C247.753 221.604 247.808 221.152 248.09 220.727Z" fill="black"/>
<path fill-rule="evenodd" clip-rule="evenodd" d="M235.843 117.702C235.045 119.238 236.808 119.714 237.828 118.972C238.596 118.414 239.05 116.992 239.176 116.08C239.584 113.128 237.511 110.318 236.478 107.699C236.211 107.022 235.845 104.7 234.985 104.636C233.997 104.563 233.924 106.702 233.911 107.254C233.873 108.917 234.315 110.612 234.834 112.183C235.392 113.876 236.775 115.908 235.843 117.702Z" fill="black"/>
<path fill-rule="evenodd" clip-rule="evenodd" d="M239.638 111.543C242.705 114.265 245.158 109.731 244.944 107.05C244.891 106.386 244.441 103.936 243.176 104.828C242.541 105.275 243.083 106.731 242.78 107.37C241.313 110.467 239.9 105.662 238.913 105.285C237.711 104.826 237.59 106.399 237.592 107.241C237.595 108.91 238.392 110.437 239.638 111.543Z" fill="black"/>
<path fill-rule="evenodd" clip-rule="evenodd" d="M228.505 111.966C229.227 110.832 230.116 109.311 230.214 107.953C230.366 105.842 229.132 106.018 228.116 107.491C227.398 108.532 226.86 110.296 225.276 109.858C223.32 109.317 223.917 106.696 222.823 105.45C220.058 109.152 225.29 117.01 228.505 111.966Z" fill="black"/>
<path fill-rule="evenodd" clip-rule="evenodd" d="M232.649 123.293C233.793 123.539 236.774 123.448 235.741 121.703C234.438 119.505 230.106 122.744 232.649 123.293Z" fill="black"/>
<path fill-rule="evenodd" clip-rule="evenodd" d="M272.712 57.7374C272.921 57.1161 272.634 57.0033 272.135 56.514C271.662 56.9488 272.267 57.4062 272.712 57.7374Z" fill="black"/>
<path fill-rule="evenodd" clip-rule="evenodd" d="M294.043 170.27C294.797 170.39 295.04 169.992 294.771 169.077C293.58 169 293.338 169.398 294.043 170.27Z" fill="black"/>
<path fill-rule="evenodd" clip-rule="evenodd" d="M252.845 74.2738C253.677 74.653 253.358 75.431 253.344 76.0885C253.772 75.6243 254.638 74.7755 254.286 74.1086C253.743 73.0804 252.323 74.0366 252.845 74.2738Z" fill="black"/>
<path fill-rule="evenodd" clip-rule="evenodd" d="M224.498 61.3321C224.371 61.0854 224.244 60.8387 224.118 60.592C223.601 61.0054 222.803 62.0984 223.624 62.631C223.961 62.2238 224.252 61.7908 224.498 61.3321Z" fill="black"/>
<path fill-rule="evenodd" clip-rule="evenodd" d="M234.483 68.5865C235.518 69.3958 235.022 66.9119 234.991 66.7091C234.837 67.0004 233.96 68.1777 234.483 68.5865Z" fill="black"/>
<path fill-rule="evenodd" clip-rule="evenodd" d="M233.909 67.3251C233.83 67.1199 233.751 66.9147 233.671 66.7091C233.252 67.0963 232.738 67.8872 233.431 68.3403C233.621 68.0229 233.78 67.6847 233.909 67.3251Z" fill="black"/>
<path fill-rule="evenodd" clip-rule="evenodd" d="M240.485 75.8547C240.57 75.9325 240.654 76.0103 240.739 76.0885C241.08 75.4019 240.692 74.8861 240.047 74.8651C240.093 75.2506 240.239 75.5805 240.485 75.8547Z" fill="black"/>
<path fill-rule="evenodd" clip-rule="evenodd" d="M212.74 153.095C213.151 152.817 213.524 152.499 213.859 152.142C212.644 151.401 213.372 153.007 211.909 152.021C211.594 152.455 212.109 153.427 212.74 153.095Z" fill="black"/>
<path fill-rule="evenodd" clip-rule="evenodd" d="M263.821 220.45C264.284 219.743 264.367 219.764 263.736 219.227C263.209 220.101 263.264 219.876 263.821 220.45Z" fill="black"/>
<path fill-rule="evenodd" clip-rule="evenodd" d="M167.213 107.928C167.465 108.19 167.716 108.452 167.968 108.713C168.085 108.371 168.726 107.403 168.291 107.081C167.932 107.364 167.572 107.646 167.213 107.928Z" fill="black"/>
<path fill-rule="evenodd" clip-rule="evenodd" d="M176.163 110.516C175.761 110.449 174.801 110.157 174.578 110.529C175.166 111.009 176.492 110.571 176.163 110.516Z" fill="black"/>
<rect x="298" y="96" width="14" height="14" rx="7" fill="#F4F4FB"/>
<rect x="316" y="79" width="24" height="24" rx="12" fill="#F4F4FB"/>
<rect x="332" y="14" width="140" height="72" rx="36" fill="#F4F4FB"/>
<rect x="379" width="63" height="56" rx="28" fill="#F4F4FB"/>
<rect x="356" y="46" width="70" height="56" rx="28" fill="#F4F4FB"/>
<circle cx="366" cy="50" r="10" fill="url(#paint0_linear)"/>
<circle opacity="0.7" cx="402" cy="50" r="10" fill="url(#paint1_linear)"/>
<circle opacity="0.2" cx="438" cy="42" r="10" fill="url(#paint2_linear)"/>
<defs>
<linearGradient id="paint0_linear" x1="365.54" y1="70" x2="385.54" y2="50.9209" gradientUnits="userSpaceOnUse">
<stop stop-color="#3639B4"/>
<stop offset="1" stop-color="#773DFC"/>
</linearGradient>
<linearGradient id="paint1_linear" x1="401.54" y1="70" x2="421.54" y2="50.9209" gradientUnits="userSpaceOnUse">
<stop stop-color="#3639B4"/>
<stop offset="1" stop-color="#773DFC"/>
</linearGradient>
<linearGradient id="paint2_linear" x1="437.54" y1="62" x2="457.54" y2="42.9209" gradientUnits="userSpaceOnUse">
<stop stop-color="#3639B4"/>
<stop offset="1" stop-color="#773DFC"/>
</linearGradient>
</defs>
</svg>
